<svg width="44" height="44" viewBox="0 0 44 44" fill="none" xmlns="http://www.w3.org/2000/svg">
<rect x="0.5" y="0.5" width="43" height="43" rx="21.5" stroke="#274B28"/>
<path d="M22 19H24V16H27V14H24V11H22V14H19V16H22V19ZM18 28C17.4696 28 16.9609 28.2107 16.5858 28.5858C16.2107 28.9609 16 29.4696 16 30C16 30.5304 16.2107 31.0391 16.5858 31.4142C16.9609 31.7893 17.4696 32 18 32C18.5304 32 19.0391 31.7893 19.4142 31.4142C19.7893 31.0391 20 30.5304 20 30C20 29.4696 19.7893 28.9609 19.4142 28.5858C19.0391 28.2107 18.5304 28 18 28ZM28 28C27.4696 28 26.9609 28.2107 26.5858 28.5858C26.2107 28.9609 26 29.4696 26 30C26 30.5304 26.2107 31.0391 26.5858 31.4142C26.9609 31.7893 27.4696 32 28 32C28.5304 32 29.0391 31.7893 29.4142 31.4142C29.7893 31.0391 30 30.5304 30 30C30 29.4696 29.7893 28.9609 29.4142 28.5858C29.0391 28.2107 28.5304 28 28 28ZM18.17 24.75L18.2 24.63L19.1 23H26.55C27.3 23 27.96 22.59 28.3 21.97L32.16 14.96L30.42 14H30.41L29.31 16L26.55 21H19.53L19.4 20.73L17.16 16L16.21 14L15.27 12H12V14H14L17.6 21.59L16.25 24.04C16.09 24.32 16 24.65 16 25C16 25.5304 16.2107 26.0391 16.5858 26.4142C16.9609 26.7893 17.4696 27 18 27H30V25H18.42C18.29 25 18.17 24.89 18.17 24.75Z" fill="#274B28"/>
</svg>
