<svg width="25" height="24" viewBox="0 0 25 24" fill="none" xmlns="http://www.w3.org/2000/svg">
<path d="M12.6086 20C8.19864 20 4.60864 16.41 4.60864 12C4.60864 7.59 8.19864 4 12.6086 4C17.0186 4 20.6086 7.59 20.6086 12C20.6086 16.41 17.0186 20 12.6086 20ZM12.6086 2C7.07864 2 2.60864 6.47 2.60864 12C2.60864 17.53 7.07864 22 12.6086 22C18.1386 22 22.6086 17.53 22.6086 12C22.6086 6.47 18.1386 2 12.6086 2ZM15.1986 8L12.6086 10.59L10.0186 8L8.60864 9.41L11.1986 12L8.60864 14.59L10.0186 16L12.6086 13.41L15.1986 16L16.6086 14.59L14.0186 12L16.6086 9.41L15.1986 8Z" fill="#F44336"/>
</svg>
