<svg width="17" height="17" viewBox="0 0 17 17" fill="none" xmlns="http://www.w3.org/2000/svg">
<path fill-rule="evenodd" clip-rule="evenodd" d="M3.29272 14.4365C3.29272 15.0237 3.77154 15.4996 4.36242 15.4996H11.7809C12.3718 15.4996 12.8498 15.0237 12.8498 14.4365V4.76074H3.29279L3.29272 14.4365ZM5.63713 7.58664C5.63713 7.25047 5.90965 6.97795 6.24582 6.97795C6.58199 6.97795 6.85452 7.25047 6.85452 7.58664V12.4562C6.85452 12.7924 6.58199 13.0649 6.24582 13.0649C5.90965 13.0649 5.63713 12.7924 5.63713 12.4562V7.58664ZM9.89817 6.97795C9.56199 6.97795 9.28947 7.25047 9.28947 7.58664V12.4562C9.28947 12.7924 9.56199 13.0649 9.89817 13.0649C10.2343 13.0649 10.5069 12.7924 10.5069 12.4562V7.58664C10.5069 7.25047 10.2343 6.97795 9.89817 6.97795Z" fill="#010101" fill-opacity="0.4"/>
<path d="M11.1348 2.03649V3.08434H13.55V4.10495H2.59351V3.08434H5.00855V2.03649C5.00855 1.92433 5.10044 1.83301 5.2141 1.83301H10.9293C11.0429 1.83301 11.1348 1.92353 11.1348 2.03649Z" fill="#010101" fill-opacity="0.4"/>
</svg>
