<svg width="25" height="25" viewBox="0 0 25 25" fill="none" xmlns="http://www.w3.org/2000/svg">
<path d="M22.2168 12.1729V20.1729C22.2168 20.7033 22.0061 21.212 21.631 21.5871C21.2559 21.9621 20.7472 22.1729 20.2168 22.1729H4.2168C3.68636 22.1729 3.17766 21.9621 2.80258 21.5871C2.42751 21.212 2.2168 20.7033 2.2168 20.1729V12.1729C1.95158 12.1729 1.69723 12.0675 1.50969 11.88C1.32215 11.6924 1.2168 11.4381 1.2168 11.1729V8.17285C1.2168 7.64242 1.42751 7.13371 1.80258 6.75864C2.17766 6.38356 2.68636 6.17285 3.2168 6.17285H6.3868C6.2768 5.86285 6.2168 5.52285 6.2168 5.17285C6.2168 4.3772 6.53287 3.61414 7.09548 3.05153C7.65809 2.48892 8.42115 2.17285 9.2168 2.17285C10.2168 2.17285 11.0968 2.67285 11.6468 3.41285V3.40285L12.2168 4.17285L12.7868 3.40285V3.41285C13.3368 2.67285 14.2168 2.17285 15.2168 2.17285C16.0124 2.17285 16.7755 2.48892 17.3381 3.05153C17.9007 3.61414 18.2168 4.3772 18.2168 5.17285C18.2168 5.52285 18.1568 5.86285 18.0468 6.17285H21.2168C21.7472 6.17285 22.2559 6.38356 22.631 6.75864C23.0061 7.13371 23.2168 7.64242 23.2168 8.17285V11.1729C23.2168 11.4381 23.1114 11.6924 22.9239 11.88C22.7364 12.0675 22.482 12.1729 22.2168 12.1729ZM4.2168 20.1729H11.2168V12.1729H4.2168V20.1729ZM20.2168 20.1729V12.1729H13.2168V20.1729H20.2168ZM9.2168 4.17285C8.95158 4.17285 8.69723 4.27821 8.50969 4.46574C8.32215 4.65328 8.2168 4.90763 8.2168 5.17285C8.2168 5.43807 8.32215 5.69242 8.50969 5.87996C8.69723 6.06749 8.95158 6.17285 9.2168 6.17285C9.48201 6.17285 9.73637 6.06749 9.9239 5.87996C10.1114 5.69242 10.2168 5.43807 10.2168 5.17285C10.2168 4.90763 10.1114 4.65328 9.9239 4.46574C9.73637 4.27821 9.48201 4.17285 9.2168 4.17285ZM15.2168 4.17285C14.9516 4.17285 14.6972 4.27821 14.5097 4.46574C14.3222 4.65328 14.2168 4.90763 14.2168 5.17285C14.2168 5.43807 14.3222 5.69242 14.5097 5.87996C14.6972 6.06749 14.9516 6.17285 15.2168 6.17285C15.482 6.17285 15.7364 6.06749 15.9239 5.87996C16.1114 5.69242 16.2168 5.43807 16.2168 5.17285C16.2168 4.90763 16.1114 4.65328 15.9239 4.46574C15.7364 4.27821 15.482 4.17285 15.2168 4.17285ZM3.2168 8.17285V10.1729H11.2168V8.17285H3.2168ZM13.2168 8.17285V10.1729H21.2168V8.17285H13.2168Z" fill="#274B28"/>
</svg>
