<svg width="16" height="16" viewBox="0 0 16 16" fill="none" xmlns="http://www.w3.org/2000/svg">
<path d="M13.3333 7.33329H15.3333V8.66663H13.3333V7.33329ZM0.666672 7.33329H2.66667V8.66663H0.666672V7.33329ZM8.66667 0.666626V2.66663H7.33334V0.666626H8.66667ZM3.28 2.33329L4.70001 3.75996L3.75334 4.69996L2.33334 3.28663L3.28 2.33329ZM11.3 3.75329L12.7133 2.33329L13.6667 3.28663L12.2467 4.69996L11.3 3.75329ZM8 3.99996C9.06087 3.99996 10.0783 4.42139 10.8284 5.17153C11.5786 5.92168 12 6.93909 12 7.99996C12 9.47996 11.1933 10.7733 10 11.4666V12.6666C10 12.8434 9.92977 13.013 9.80474 13.138C9.67972 13.2631 9.51015 13.3333 9.33334 13.3333H6.66667C6.48986 13.3333 6.32029 13.2631 6.19527 13.138C6.07024 13.013 6 12.8434 6 12.6666V11.4666C4.80667 10.7733 4 9.47996 4 7.99996C4.00001 6.93909 4.42143 5.92168 5.17158 5.17153C5.92172 4.42139 6.93914 3.99996 8 3.99996ZM9.33334 14V14.6666C9.33334 14.8434 9.2631 15.013 9.13808 15.138C9.01305 15.2631 8.84348 15.3333 8.66667 15.3333H7.33334C7.15653 15.3333 6.98696 15.2631 6.86193 15.138C6.73691 15.013 6.66667 14.8434 6.66667 14.6666V14H9.33334ZM7.33334 12H8.66667V10.58C9.82 10.2866 10.6667 9.23996 10.6667 7.99996C10.6667 7.29272 10.3857 6.61444 9.88562 6.11434C9.38553 5.61424 8.70725 5.33329 8 5.33329C7.29276 5.33329 6.61448 5.61424 6.11439 6.11434C5.61429 6.61444 5.33334 7.29272 5.33334 7.99996C5.33334 9.23996 6.18 10.2866 7.33334 10.58V12Z" fill="#FF9800"/>
</svg>
