<svg width="48" height="48" viewBox="0 0 48 48" fill="none" xmlns="http://www.w3.org/2000/svg">
<path d="M34 6H42V10H34V6ZM34 14H42V18H34V14ZM34 22H42V26H35.5L34 24.2V22ZM42 30V34H38C38 32.62 37.8 31.26 37.42 30H42ZM14 6V10H6V6H14ZM14 14V18H6V14H14ZM14 22V24.2L12.5 26H6V22H14ZM6 30H10.58C10.2 31.26 10 32.62 10 34H6V30ZM30 26V10C30 6.68 27.32 4 24 4C20.68 4 18 6.68 18 10V26C13.58 29.32 12.68 35.58 16 40C19.32 44.42 25.58 45.32 30 42C34.42 38.68 35.32 32.42 32 28C31.44 27.24 30.76 26.56 30 26ZM24 8C25.1 8 26 8.9 26 10V16H22V10C22 8.9 22.9 8 24 8Z" fill="#2196F3"/>
</svg>
