<svg width="336" height="179" viewBox="0 0 336 179" fill="none" xmlns="http://www.w3.org/2000/svg">
<g clip-path="url(#clip0)">
<path d="M15.7158 178.485L15.7855 178.117C15.801 178.036 17.3871 169.991 23.3328 165.322C29.2789 160.654 37.474 161.019 37.5559 161.023L37.9296 161.043L37.8599 161.41C37.8444 161.49 36.2582 169.536 30.3125 174.205C24.3665 178.873 16.1714 178.508 16.0895 178.504L15.7158 178.485ZM23.736 165.836C18.7089 169.783 16.8987 176.237 16.5114 177.86C18.1809 177.867 24.887 177.635 29.9093 173.691C34.931 169.748 36.7452 163.291 37.134 161.667C35.4635 161.66 28.7581 161.892 23.736 165.836Z" fill="#F1F1F1"/>
<path d="M26.1006 167.626C23.3768 174.639 16.2065 178.399 16.2065 178.399C16.2065 178.399 13.4523 170.788 16.176 163.774C18.8998 156.761 26.0701 153.001 26.0701 153.001C26.0701 153.001 28.8243 160.613 26.1006 167.626Z" fill="#F1F1F1"/>
<path d="M326.137 178.504C326.055 178.508 317.86 178.873 311.914 174.205C305.968 169.536 304.382 161.49 304.367 161.41L304.297 161.043L304.671 161.023C304.753 161.019 312.948 160.654 318.894 165.322C324.84 169.991 326.426 178.036 326.441 178.117L326.511 178.485L326.137 178.504ZM305.093 161.667C305.481 163.291 307.296 169.748 312.317 173.691C317.34 177.635 324.046 177.867 325.715 177.86C325.328 176.237 323.518 169.783 318.491 165.836C313.469 161.892 306.763 161.66 305.093 161.667H305.093Z" fill="#F1F1F1"/>
<path d="M316.126 167.626C318.85 174.639 326.02 178.399 326.02 178.399C326.02 178.399 328.774 170.788 326.051 163.774C323.327 156.761 316.157 153.001 316.157 153.001C316.157 153.001 313.402 160.613 316.126 167.626Z" fill="#F1F1F1"/>
<path d="M192.579 176.808L187.817 174.803L184.55 150.939H141.046L137.505 174.706L133.244 176.835C133.04 176.937 132.877 177.105 132.78 177.311C132.684 177.517 132.66 177.75 132.712 177.972C132.764 178.194 132.89 178.391 133.069 178.533C133.248 178.674 133.469 178.751 133.697 178.751H192.187C192.42 178.751 192.647 178.67 192.827 178.522C193.008 178.375 193.132 178.169 193.178 177.94C193.225 177.711 193.19 177.473 193.081 177.267C192.972 177.06 192.794 176.898 192.579 176.808Z" fill="#E6E6E6"/>
<path d="M269.889 154.114H56.1842C55.063 154.112 53.9885 153.665 53.1965 152.871C52.4046 152.078 51.9598 151.003 51.9598 149.882V119.758H274.114V149.882C274.114 151.003 273.669 152.078 272.877 152.871C272.085 153.665 271.01 154.112 269.889 154.114Z" fill="#CCCCCC"/>
<path d="M274.337 133.995H51.7648V5.10192C51.7664 3.74925 52.3046 2.45244 53.2615 1.49598C54.2183 0.539518 55.5157 0.00151615 56.8688 0H269.233C270.586 0.00151526 271.883 0.539514 272.84 1.49597C273.797 2.45243 274.335 3.74925 274.337 5.10192V133.995Z" fill="#3F3D56"/>
<path d="M261.044 124.64H65.0581C64.0149 124.639 63.0147 124.224 62.2771 123.487C61.5394 122.75 61.1244 121.75 61.1233 120.707V13.2883C61.1244 12.2455 61.5394 11.2457 62.277 10.5083C63.0147 9.77086 64.0149 9.35606 65.0581 9.35486H261.044C262.087 9.35606 263.087 9.77086 263.825 10.5083C264.562 11.2457 264.977 12.2455 264.978 13.2883V120.707C264.977 121.75 264.562 122.75 263.825 123.487C263.087 124.224 262.087 124.639 261.044 124.64Z" fill="white"/>
<path d="M335.502 179H0.518289C0.405478 179.002 0.295043 178.967 0.204192 178.901C0.11334 178.834 0.0471736 178.739 0.0160025 178.63C-0.00345808 178.556 -0.00572316 178.479 0.0093794 178.404C0.024482 178.33 0.0565485 178.259 0.103116 178.199C0.149683 178.138 0.209507 178.089 0.277984 178.056C0.346462 178.022 0.421768 178.004 0.498106 178.004H335.461C335.58 178 335.697 178.036 335.793 178.107C335.889 178.178 335.958 178.279 335.989 178.394C336.005 178.466 336.004 178.542 335.987 178.615C335.97 178.687 335.937 178.755 335.891 178.813C335.844 178.872 335.785 178.919 335.718 178.951C335.65 178.983 335.577 179 335.502 179Z" fill="#CCCCCC"/>
<path d="M103.907 49.9791H71.661V53.0063H103.907V49.9791Z" fill="#E5E5E5"/>
<path d="M103.907 57.3202H71.661V60.3473H103.907V57.3202Z" fill="#E5E5E5"/>
<path d="M103.907 64.8235H71.661V67.8506H103.907V64.8235Z" fill="#E5E5E5"/>
<path d="M103.907 72.3268H71.661V75.3539H103.907V72.3268Z" fill="#E5E5E5"/>
<path d="M96.269 81.8613H79.2987V84.4884H96.269V81.8613Z" fill="#274B28"/>
<path d="M154.083 68.7539H153.775V69.6786H154.083V68.7539Z" fill="#E5E5E5"/>
<path d="M154.083 89.3796H153.775V87.4095H154.083V89.3796ZM154.083 85.4394H153.775V83.4693H154.083V85.4394ZM154.083 81.4991H153.775V79.5291H154.083V81.4991ZM154.083 77.5589H153.775V75.5888H154.083V77.5589ZM154.083 73.6187H153.775V71.6486H154.083V73.6187Z" fill="#E5E5E5"/>
<path d="M154.083 91.3499H153.775V92.2745H154.083V91.3499Z" fill="#E5E5E5"/>
<path d="M187.845 68.7539H187.537V69.6786H187.845V68.7539Z" fill="#E5E5E5"/>
<path d="M187.845 89.3796H187.537V87.4095H187.845V89.3796ZM187.845 85.4394H187.537V83.4693H187.845V85.4394ZM187.845 81.4991H187.537V79.5291H187.845V81.4991ZM187.845 77.5589H187.537V75.5888H187.845V77.5589ZM187.845 73.6187H187.537V71.6486H187.845V73.6187Z" fill="#E5E5E5"/>
<path d="M187.845 91.3499H187.537V92.2745H187.845V91.3499Z" fill="#E5E5E5"/>
<path d="M204.876 50.6653H204.568V51.5899H204.876V50.6653Z" fill="#E5E5E5"/>
<path d="M204.876 89.4565H204.568V87.5632H204.876V89.4565ZM204.876 85.6699H204.568V83.7765H204.876V85.6699ZM204.876 81.8832H204.568V79.9899H204.876V81.8832ZM204.876 78.0966H204.568V76.2032H204.876V78.0966ZM204.876 74.3099H204.568V72.4165H204.876V74.3099ZM204.876 70.5232H204.568V68.6299H204.876V70.5232ZM204.876 66.7366H204.568V64.8433H204.876V66.7366ZM204.876 62.9499H204.568V61.0566H204.876V62.9499ZM204.876 59.1632H204.568V57.2699H204.876V59.1632ZM204.876 55.3766H204.568V53.4833H204.876V55.3766Z" fill="#E5E5E5"/>
<path d="M204.876 91.3499H204.568V92.2745H204.876V91.3499Z" fill="#E5E5E5"/>
<path d="M221.737 43.2682H221.429V44.1928H221.737V43.2682Z" fill="#E5E5E5"/>
<path d="M221.737 89.4636H221.429V87.5773H221.737V89.4636ZM221.737 85.691H221.429V83.8047H221.737V85.691ZM221.737 81.9185H221.429V80.0322H221.737V81.9185ZM221.737 78.1459H221.429V76.2596H221.737V78.1459ZM221.737 74.3733H221.429V72.487H221.737V74.3733ZM221.737 70.6008H221.429V68.7145H221.737V70.6008ZM221.737 66.8282H221.429V64.9419H221.737V66.8282ZM221.737 63.0557H221.429V61.1694H221.737V63.0557ZM221.737 59.2831H221.429V57.3968H221.737V59.2831ZM221.737 55.5105H221.429V53.6242H221.737V55.5105ZM221.737 51.738H221.429V49.8517H221.737V51.738ZM221.737 47.9654H221.429V46.0791H221.737V47.9654Z" fill="#E5E5E5"/>
<path d="M221.737 91.3499H221.429V92.2745H221.737V91.3499Z" fill="#E5E5E5"/>
<path d="M171.041 56.3673H170.733V57.292H171.041V56.3673Z" fill="#E5E5E5"/>
<path d="M171.041 89.5573H170.733V87.7648H171.041V89.5573ZM171.041 85.9723H170.733V84.1798H171.041V85.9723ZM171.041 82.3872H170.733V80.5947H171.041V82.3872ZM171.041 78.8022H170.733V77.0097H171.041V78.8022ZM171.041 75.2171H170.733V73.4247H171.041V75.2171ZM171.041 71.6321H170.733V69.8396H171.041V71.6321ZM171.041 68.047H170.733V66.2546H171.041V68.047ZM171.041 64.462H170.733V62.6695H171.041V64.462ZM171.041 60.877H170.733V59.0845H171.041V60.877Z" fill="#E5E5E5"/>
<path d="M171.041 91.3499H170.733V92.2745H171.041V91.3499Z" fill="#E5E5E5"/>
<path d="M238.838 92.7039H136.762C136.677 92.7039 136.596 92.6702 136.536 92.6103C136.476 92.5505 136.442 92.4692 136.442 92.3845V43.4777C136.442 43.393 136.476 43.3117 136.536 43.2518C136.596 43.192 136.677 43.1583 136.762 43.1583C136.846 43.1583 136.927 43.192 136.987 43.2518C137.047 43.3117 137.081 43.393 137.081 43.4777V92.0652H238.838C238.923 92.0652 239.004 92.0989 239.064 92.1587C239.124 92.2186 239.158 92.2999 239.158 92.3845C239.158 92.4692 239.124 92.5505 239.064 92.6103C239.004 92.6702 238.923 92.7039 238.838 92.7039V92.7039Z" fill="#3F3D56"/>
<path d="M187.831 69.183L170.86 56.476L154.12 69.0094L153.737 68.4982L170.86 55.6781L187.75 68.3246L204.535 49.9635L204.603 49.9361L221.533 43.1169L221.772 43.7097L204.909 50.5015L187.831 69.183Z" fill="#3F3D56"/>
<path d="M153.929 70.6699C154.987 70.6699 155.845 69.8121 155.845 68.7539C155.845 67.6957 154.987 66.8379 153.929 66.8379C152.87 66.8379 152.012 67.6957 152.012 68.7539C152.012 69.8121 152.87 70.6699 153.929 70.6699Z" fill="#274B28"/>
<path d="M170.86 58.2159C171.918 58.2159 172.777 57.3581 172.777 56.2999C172.777 55.2417 171.918 54.3839 170.86 54.3839C169.801 54.3839 168.943 55.2417 168.943 56.2999C168.943 57.3581 169.801 58.2159 170.86 58.2159Z" fill="#274B28"/>
<path d="M187.791 70.6699C188.849 70.6699 189.708 69.8121 189.708 68.7539C189.708 67.6957 188.849 66.8379 187.791 66.8379C186.732 66.8379 185.874 67.6957 185.874 68.7539C185.874 69.8121 186.732 70.6699 187.791 70.6699Z" fill="#274B28"/>
<path d="M204.722 52.1485C205.78 52.1485 206.639 51.2907 206.639 50.2325C206.639 49.1743 205.78 48.3165 204.722 48.3165C203.663 48.3165 202.805 49.1743 202.805 50.2325C202.805 51.2907 203.663 52.1485 204.722 52.1485Z" fill="#274B28"/>
<path d="M221.653 45.1233C222.712 45.1233 223.57 44.2654 223.57 43.2073C223.57 42.1491 222.712 41.2913 221.653 41.2913C220.594 41.2913 219.736 42.1491 219.736 43.2073C219.736 44.2654 220.594 45.1233 221.653 45.1233Z" fill="#274B28"/>
<path d="M113.985 9.35474H113.332V124.64H113.985V9.35474Z" fill="#E5E5E5"/>
<path d="M267.86 123.46C268.085 123.192 268.249 122.878 268.34 122.539C268.431 122.201 268.446 121.847 268.385 121.502C268.324 121.157 268.188 120.829 267.987 120.543C267.785 120.256 267.524 120.017 267.22 119.842L268.813 111.477L264.727 113.179L263.84 120.862C263.58 121.391 263.524 121.998 263.682 122.566C263.839 123.135 264.2 123.625 264.695 123.946C265.191 124.266 265.787 124.394 266.37 124.304C266.953 124.215 267.483 123.914 267.86 123.46Z" fill="#FFB7B7"/>
<path d="M288.234 174.792H284.774L283.128 161.452L288.235 161.452L288.234 174.792Z" fill="#FFB7B7"/>
<path d="M289.116 178.145L277.96 178.145V178.004C277.96 176.852 278.418 175.748 279.232 174.934C280.046 174.12 281.151 173.663 282.302 173.663H282.303L289.117 173.663L289.116 178.145Z" fill="#2F2E41"/>
<path d="M269.325 174.792H265.865L264.219 161.452L269.326 161.452L269.325 174.792Z" fill="#FFB7B7"/>
<path d="M269.361 178.145L258.205 178.145V178.004C258.205 176.852 258.662 175.748 259.476 174.934C260.291 174.12 261.395 173.663 262.547 173.663H262.547L269.361 173.663L269.361 178.145Z" fill="#2F2E41"/>
<path d="M269.042 118.448L265.655 126.247L262.861 171.075L269.917 170.793L271.844 149.424L277.788 130.39L281.206 151.609L282.617 170.229L288.455 170.482L290.781 118.448H269.042Z" fill="#2F2E41"/>
<path d="M285.971 79.963L276.155 80.2085L270.392 83.1657L270.076 104.984L266.482 120.047C266.482 120.047 288.938 121.592 292.043 119.335L288.374 102.126L293.295 83.5284L285.971 79.963Z" fill="#274B28"/>
<path d="M271.441 83.5068L270.392 83.1658C270.392 83.1658 267.066 85.2995 267.383 90.4582C267.383 90.4582 267.258 93.1276 267.377 94.9042C267.514 96.9419 263.426 117.191 263.426 117.191H269.353L271.893 98.8538L271.441 83.5068Z" fill="#274B28"/>
<path d="M293.141 123.742C292.916 123.474 292.752 123.16 292.661 122.821C292.57 122.483 292.555 122.129 292.616 121.784C292.677 121.439 292.813 121.112 293.014 120.825C293.216 120.538 293.477 120.299 293.781 120.124L292.188 111.759L296.274 113.461L297.161 121.144C297.42 121.673 297.477 122.28 297.319 122.848C297.162 123.417 296.801 123.908 296.305 124.228C295.81 124.548 295.214 124.676 294.631 124.586C294.048 124.497 293.518 124.197 293.141 123.742Z" fill="#FFB7B7"/>
<path d="M291.818 83.7889L292.866 83.4479C292.866 83.4479 296.192 85.5816 295.876 90.7403C295.876 90.7403 296.001 93.4097 295.881 95.1863C295.745 97.224 297.575 117.473 297.575 117.473H291.648L289.108 99.1359L291.818 83.7889Z" fill="#274B28"/>
<path d="M288.38 70.8094C288.38 72.1546 287.981 73.4697 287.233 74.5883C286.486 75.7068 285.423 76.5786 284.18 77.0934C282.936 77.6082 281.568 77.7429 280.248 77.4805C278.929 77.218 277.716 76.5702 276.764 75.619C275.813 74.6677 275.165 73.4558 274.902 72.1364C274.64 70.8169 274.774 69.4493 275.289 68.2065C275.804 66.9636 276.677 65.9013 277.796 65.1539C278.915 64.4065 280.23 64.0076 281.576 64.0076C282.467 64.0054 283.35 64.1787 284.175 64.5176C284.999 64.8565 285.748 65.3544 286.38 65.9828C287.012 66.6113 287.514 67.358 287.857 68.1803C288.2 69.0027 288.378 69.8845 288.38 70.7755C288.38 70.7868 288.38 70.7981 288.38 70.8094Z" fill="#FFB7B7"/>
<path d="M274.794 61.6734C275.591 59.96 277.134 60.2987 278.483 60.8795C280.191 60.5007 281.816 59.3666 283.657 60.0373C285.47 62.6734 291.557 61.8979 290.262 66.1895C290.26 67.2178 292.198 66.6192 291.86 68.3035C292.886 71.5447 288.155 77.6832 285.439 76.3905C286.111 75.16 287.645 72.3649 285.318 72.0877C280.312 76.7441 284.801 63.2207 278.511 67.1535C276.428 69.0588 273.577 63.5792 274.794 61.6734Z" fill="#2F2E41"/>
</g>
<defs>
<clipPath id="clip0">
<rect width="336" height="179" fill="white"/>
</clipPath>
</defs>
</svg>
