<svg width="191" height="114" viewBox="0 0 191 114" fill="none" xmlns="http://www.w3.org/2000/svg">
<g filter="url(#filter0_d)">
<rect x="17.5" y="25.5" width="156" height="71.001" rx="3.5" fill="white"/>
<path d="M33 25L49 25L41 17L33 25Z" fill="white"/>
<path d="M33 26.5L49 26.5L41 18.5L33 26.5Z" fill="white"/>
<path d="M40.462 47.201C40.5087 47.201 40.546 47.2196 40.574 47.257C40.6113 47.285 40.63 47.3223 40.63 47.369V48.447C40.63 48.4936 40.6113 48.5356 40.574 48.573C40.546 48.601 40.5087 48.615 40.462 48.615H37.886C37.8393 48.615 37.816 48.6383 37.816 48.685V56.833C37.816 56.8796 37.7973 56.9216 37.76 56.959C37.732 56.987 37.6947 57.001 37.648 57.001H36.36C36.3133 57.001 36.2713 56.987 36.234 56.959C36.206 56.9216 36.192 56.8796 36.192 56.833V48.685C36.192 48.6383 36.1687 48.615 36.122 48.615H33.644C33.5973 48.615 33.5553 48.601 33.518 48.573C33.49 48.5356 33.476 48.4936 33.476 48.447V47.369C33.476 47.3223 33.49 47.285 33.518 47.257C33.5553 47.2196 33.5973 47.201 33.644 47.201H40.462ZM43.906 57.113C43.1687 57.113 42.534 56.9263 42.002 56.553C41.4793 56.1796 41.1107 55.6616 40.896 54.999C40.7373 54.495 40.658 53.963 40.658 53.403C40.658 52.8056 40.7327 52.2736 40.882 51.807C41.0967 51.1536 41.47 50.645 42.002 50.281C42.534 49.917 43.1733 49.735 43.92 49.735C44.6293 49.735 45.2407 49.917 45.754 50.281C46.2767 50.645 46.6453 51.149 46.86 51.793C47.028 52.241 47.112 52.773 47.112 53.389C47.112 53.977 47.0327 54.509 46.874 54.985C46.6593 55.6476 46.2907 56.1703 45.768 56.553C45.2453 56.9263 44.6247 57.113 43.906 57.113ZM43.906 55.713C44.2513 55.713 44.5453 55.615 44.788 55.419C45.04 55.223 45.222 54.9476 45.334 54.593C45.4273 54.285 45.474 53.893 45.474 53.417C45.474 52.913 45.4273 52.521 45.334 52.241C45.2313 51.8863 45.054 51.6156 44.802 51.429C44.55 51.233 44.242 51.135 43.878 51.135C43.5327 51.135 43.234 51.233 42.982 51.429C42.73 51.6156 42.548 51.8863 42.436 52.241C42.3427 52.5676 42.296 52.9596 42.296 53.417C42.296 53.8743 42.3427 54.2663 42.436 54.593C42.5387 54.9476 42.716 55.223 42.968 55.419C43.2293 55.615 43.542 55.713 43.906 55.713ZM51.6853 57.113C50.948 57.113 50.3133 56.9263 49.7813 56.553C49.2586 56.1796 48.89 55.6616 48.6753 54.999C48.5166 54.495 48.4373 53.963 48.4373 53.403C48.4373 52.8056 48.512 52.2736 48.6613 51.807C48.876 51.1536 49.2493 50.645 49.7813 50.281C50.3133 49.917 50.9526 49.735 51.6993 49.735C52.4086 49.735 53.02 49.917 53.5333 50.281C54.056 50.645 54.4246 51.149 54.6393 51.793C54.8073 52.241 54.8913 52.773 54.8913 53.389C54.8913 53.977 54.812 54.509 54.6533 54.985C54.4386 55.6476 54.07 56.1703 53.5473 56.553C53.0246 56.9263 52.404 57.113 51.6853 57.113ZM51.6853 55.713C52.0306 55.713 52.3246 55.615 52.5673 55.419C52.8193 55.223 53.0013 54.9476 53.1133 54.593C53.2066 54.285 53.2533 53.893 53.2533 53.417C53.2533 52.913 53.2066 52.521 53.1133 52.241C53.0106 51.8863 52.8333 51.6156 52.5813 51.429C52.3293 51.233 52.0213 51.135 51.6573 51.135C51.312 51.135 51.0133 51.233 50.7613 51.429C50.5093 51.6156 50.3273 51.8863 50.2153 52.241C50.122 52.5676 50.0753 52.9596 50.0753 53.417C50.0753 53.8743 50.122 54.2663 50.2153 54.593C50.318 54.9476 50.4953 55.223 50.7473 55.419C51.0086 55.615 51.3213 55.713 51.6853 55.713ZM56.5946 57.001C56.5479 57.001 56.5059 56.987 56.4686 56.959C56.4406 56.9216 56.4266 56.8796 56.4266 56.833V47.369C56.4266 47.3223 56.4406 47.285 56.4686 47.257C56.5059 47.2196 56.5479 47.201 56.5946 47.201H57.8826C57.9293 47.201 57.9666 47.2196 57.9946 47.257C58.0319 47.285 58.0506 47.3223 58.0506 47.369V56.833C58.0506 56.8796 58.0319 56.9216 57.9946 56.959C57.9666 56.987 57.9293 57.001 57.8826 57.001H56.5946ZM63.5702 50.995C63.5702 51.0416 63.5515 51.0836 63.5142 51.121C63.4862 51.149 63.4489 51.163 63.4022 51.163H61.9742C61.9275 51.163 61.9042 51.1863 61.9042 51.233V54.607C61.9042 54.9616 61.9789 55.2183 62.1282 55.377C62.2869 55.5356 62.5342 55.615 62.8702 55.615H63.2902C63.3369 55.615 63.3742 55.6336 63.4022 55.671C63.4395 55.699 63.4582 55.7363 63.4582 55.783V56.833C63.4582 56.9356 63.4022 56.9963 63.2902 57.015L62.5622 57.029C61.8249 57.029 61.2742 56.903 60.9102 56.651C60.5462 56.399 60.3595 55.923 60.3502 55.223V51.233C60.3502 51.1863 60.3269 51.163 60.2802 51.163H59.4822C59.4355 51.163 59.3935 51.149 59.3562 51.121C59.3282 51.0836 59.3142 51.0416 59.3142 50.995V50.015C59.3142 49.9683 59.3282 49.931 59.3562 49.903C59.3935 49.8656 59.4355 49.847 59.4822 49.847H60.2802C60.3269 49.847 60.3502 49.8236 60.3502 49.777V48.139C60.3502 48.0923 60.3642 48.055 60.3922 48.027C60.4295 47.9896 60.4715 47.971 60.5182 47.971H61.7362C61.7829 47.971 61.8202 47.9896 61.8482 48.027C61.8855 48.055 61.9042 48.0923 61.9042 48.139V49.777C61.9042 49.8236 61.9275 49.847 61.9742 49.847H63.4022C63.4489 49.847 63.4862 49.8656 63.5142 49.903C63.5515 49.931 63.5702 49.9683 63.5702 50.015V50.995ZM65.9365 48.867C65.6472 48.867 65.4092 48.7736 65.2225 48.587C65.0359 48.4003 64.9425 48.1623 64.9425 47.873C64.9425 47.5836 65.0359 47.3456 65.2225 47.159C65.4092 46.9723 65.6472 46.879 65.9365 46.879C66.2259 46.879 66.4639 46.9723 66.6505 47.159C66.8372 47.3456 66.9305 47.5836 66.9305 47.873C66.9305 48.1623 66.8372 48.4003 66.6505 48.587C66.4639 48.7736 66.2259 48.867 65.9365 48.867ZM65.2645 57.001C65.2179 57.001 65.1759 56.987 65.1385 56.959C65.1105 56.9216 65.0965 56.8796 65.0965 56.833V50.001C65.0965 49.9543 65.1105 49.917 65.1385 49.889C65.1759 49.8516 65.2179 49.833 65.2645 49.833H66.5525C66.5992 49.833 66.6365 49.8516 66.6645 49.889C66.7019 49.917 66.7205 49.9543 66.7205 50.001V56.833C66.7205 56.8796 66.7019 56.9216 66.6645 56.959C66.6365 56.987 66.5992 57.001 66.5525 57.001H65.2645ZM74.6429 51.695C74.8109 52.171 74.8949 52.7543 74.8949 53.445C74.8949 54.1076 74.8156 54.677 74.6569 55.153C74.4516 55.769 74.1202 56.2496 73.6629 56.595C73.2149 56.9403 72.6456 57.113 71.9549 57.113C71.2922 57.113 70.7602 56.875 70.3589 56.399C70.3402 56.3803 70.3216 56.3756 70.3029 56.385C70.2842 56.3943 70.2749 56.413 70.2749 56.441V59.479C70.2749 59.5256 70.2562 59.563 70.2189 59.591C70.1909 59.6283 70.1536 59.647 70.1069 59.647H68.8189C68.7722 59.647 68.7302 59.6283 68.6929 59.591C68.6649 59.563 68.6509 59.5256 68.6509 59.479V50.015C68.6509 49.9683 68.6649 49.931 68.6929 49.903C68.7302 49.8656 68.7722 49.847 68.8189 49.847H70.1069C70.1536 49.847 70.1909 49.8656 70.2189 49.903C70.2562 49.931 70.2749 49.9683 70.2749 50.015V50.435C70.2749 50.463 70.2842 50.4816 70.3029 50.491C70.3216 50.5003 70.3402 50.491 70.3589 50.463C70.7696 49.9776 71.3062 49.735 71.9689 49.735C72.6316 49.735 73.1916 49.9076 73.6489 50.253C74.1062 50.5983 74.4376 51.079 74.6429 51.695ZM72.8229 55.125C73.1029 54.6956 73.2429 54.1263 73.2429 53.417C73.2429 52.7356 73.1309 52.199 72.9069 51.807C72.6456 51.3496 72.2489 51.121 71.7169 51.121C71.2316 51.121 70.8676 51.345 70.6249 51.793C70.4102 52.157 70.3029 52.6983 70.3029 53.417C70.3029 54.1543 70.4196 54.7143 70.6529 55.097C70.8956 55.5076 71.2456 55.713 71.7029 55.713C72.1976 55.713 72.5709 55.517 72.8229 55.125ZM85.8663 47.201C85.913 47.201 85.9503 47.2196 85.9783 47.257C86.0156 47.285 86.0343 47.3223 86.0343 47.369V48.447C86.0343 48.4936 86.0156 48.5356 85.9783 48.573C85.9503 48.601 85.913 48.615 85.8663 48.615H83.2903C83.2436 48.615 83.2203 48.6383 83.2203 48.685V56.833C83.2203 56.8796 83.2016 56.9216 83.1643 56.959C83.1363 56.987 83.099 57.001 83.0523 57.001H81.7643C81.7176 57.001 81.6756 56.987 81.6383 56.959C81.6103 56.9216 81.5963 56.8796 81.5963 56.833V48.685C81.5963 48.6383 81.573 48.615 81.5263 48.615H79.0483C79.0016 48.615 78.9596 48.601 78.9223 48.573C78.8943 48.5356 78.8803 48.4936 78.8803 48.447V47.369C78.8803 47.3223 78.8943 47.285 78.9223 47.257C78.9596 47.2196 79.0016 47.201 79.0483 47.201H85.8663ZM88.1807 48.867C87.8913 48.867 87.6533 48.7736 87.4667 48.587C87.28 48.4003 87.1867 48.1623 87.1867 47.873C87.1867 47.5836 87.28 47.3456 87.4667 47.159C87.6533 46.9723 87.8913 46.879 88.1807 46.879C88.47 46.879 88.708 46.9723 88.8947 47.159C89.0813 47.3456 89.1747 47.5836 89.1747 47.873C89.1747 48.1623 89.0813 48.4003 88.8947 48.587C88.708 48.7736 88.47 48.867 88.1807 48.867ZM87.5087 57.001C87.462 57.001 87.42 56.987 87.3827 56.959C87.3547 56.9216 87.3407 56.8796 87.3407 56.833V50.001C87.3407 49.9543 87.3547 49.917 87.3827 49.889C87.42 49.8516 87.462 49.833 87.5087 49.833H88.7967C88.8433 49.833 88.8807 49.8516 88.9087 49.889C88.946 49.917 88.9647 49.9543 88.9647 50.001V56.833C88.9647 56.8796 88.946 56.9216 88.9087 56.959C88.8807 56.987 88.8433 57.001 88.7967 57.001H87.5087ZM94.619 50.995C94.619 51.0416 94.6004 51.0836 94.563 51.121C94.535 51.149 94.4977 51.163 94.451 51.163H93.023C92.9764 51.163 92.953 51.1863 92.953 51.233V54.607C92.953 54.9616 93.0277 55.2183 93.177 55.377C93.3357 55.5356 93.583 55.615 93.919 55.615H94.339C94.3857 55.615 94.423 55.6336 94.451 55.671C94.4884 55.699 94.507 55.7363 94.507 55.783V56.833C94.507 56.9356 94.451 56.9963 94.339 57.015L93.611 57.029C92.8737 57.029 92.323 56.903 91.959 56.651C91.595 56.399 91.4084 55.923 91.399 55.223V51.233C91.399 51.1863 91.3757 51.163 91.329 51.163H90.531C90.4844 51.163 90.4424 51.149 90.405 51.121C90.377 51.0836 90.363 51.0416 90.363 50.995V50.015C90.363 49.9683 90.377 49.931 90.405 49.903C90.4424 49.8656 90.4844 49.847 90.531 49.847H91.329C91.3757 49.847 91.399 49.8236 91.399 49.777V48.139C91.399 48.0923 91.413 48.055 91.441 48.027C91.4784 47.9896 91.5204 47.971 91.567 47.971H92.785C92.8317 47.971 92.869 47.9896 92.897 48.027C92.9344 48.055 92.953 48.0923 92.953 48.139V49.777C92.953 49.8236 92.9764 49.847 93.023 49.847H94.451C94.4977 49.847 94.535 49.8656 94.563 49.903C94.6004 49.931 94.619 49.9683 94.619 50.015V50.995ZM96.2294 57.001C96.1827 57.001 96.1407 56.987 96.1034 56.959C96.0754 56.9216 96.0614 56.8796 96.0614 56.833V47.369C96.0614 47.3223 96.0754 47.285 96.1034 47.257C96.1407 47.2196 96.1827 47.201 96.2294 47.201H97.5174C97.564 47.201 97.6014 47.2196 97.6294 47.257C97.6667 47.285 97.6854 47.3223 97.6854 47.369V56.833C97.6854 56.8796 97.6667 56.9216 97.6294 56.959C97.6014 56.987 97.564 57.001 97.5174 57.001H96.2294ZM105.445 52.619C105.482 52.8523 105.501 53.1136 105.501 53.403L105.487 53.837C105.487 53.949 105.431 54.005 105.319 54.005H100.937C100.89 54.005 100.867 54.0283 100.867 54.075C100.895 54.383 100.937 54.593 100.993 54.705C101.217 55.377 101.763 55.7176 102.631 55.727C103.266 55.727 103.77 55.4656 104.143 54.943C104.18 54.887 104.227 54.859 104.283 54.859C104.32 54.859 104.353 54.873 104.381 54.901L105.249 55.615C105.333 55.6803 105.347 55.755 105.291 55.839C105.002 56.2496 104.614 56.567 104.129 56.791C103.653 57.015 103.121 57.127 102.533 57.127C101.805 57.127 101.184 56.9636 100.671 56.637C100.167 56.3103 99.7983 55.853 99.565 55.265C99.3503 54.761 99.243 54.061 99.243 53.165C99.243 52.6236 99.299 52.185 99.411 51.849C99.5976 51.1956 99.9476 50.6823 100.461 50.309C100.984 49.9263 101.609 49.735 102.337 49.735C104.176 49.735 105.212 50.6963 105.445 52.619ZM102.337 51.135C101.992 51.135 101.702 51.2236 101.469 51.401C101.245 51.569 101.086 51.807 100.993 52.115C100.937 52.2736 100.9 52.479 100.881 52.731C100.862 52.7776 100.881 52.801 100.937 52.801H103.779C103.826 52.801 103.849 52.7776 103.849 52.731C103.83 52.4976 103.802 52.3203 103.765 52.199C103.681 51.863 103.513 51.6016 103.261 51.415C103.018 51.2283 102.71 51.135 102.337 51.135Z" fill="white"/>
<path d="M39.192 69.601C39.272 69.601 39.312 69.641 39.312 69.721V70.237C39.312 70.317 39.272 70.357 39.192 70.357H36.84C36.808 70.357 36.792 70.373 36.792 70.405V77.881C36.792 77.961 36.752 78.001 36.672 78.001H36.06C35.98 78.001 35.94 77.961 35.94 77.881V70.405C35.94 70.373 35.924 70.357 35.892 70.357H33.636C33.556 70.357 33.516 70.317 33.516 70.237V69.721C33.516 69.641 33.556 69.601 33.636 69.601H39.192ZM42.2643 78.097C41.6883 78.097 41.1923 77.949 40.7763 77.653C40.3603 77.357 40.0723 76.949 39.9123 76.429C39.8003 76.061 39.7443 75.569 39.7443 74.953C39.7443 74.337 39.8003 73.849 39.9123 73.489C40.0643 72.977 40.3483 72.573 40.7643 72.277C41.1803 71.981 41.6843 71.833 42.2763 71.833C42.8443 71.833 43.3323 71.981 43.7403 72.277C44.1563 72.573 44.4403 72.973 44.5923 73.477C44.7043 73.821 44.7603 74.313 44.7603 74.953C44.7603 75.601 44.7043 76.093 44.5923 76.429C44.4403 76.949 44.1563 77.357 43.7403 77.653C43.3323 77.949 42.8403 78.097 42.2643 78.097ZM42.2643 77.353C42.6483 77.353 42.9763 77.249 43.2483 77.041C43.5203 76.825 43.7043 76.537 43.8003 76.177C43.8723 75.889 43.9083 75.485 43.9083 74.965C43.9083 74.437 43.8763 74.033 43.8123 73.753C43.7163 73.393 43.5283 73.109 43.2483 72.901C42.9763 72.685 42.6443 72.577 42.2523 72.577C41.8603 72.577 41.5283 72.685 41.2563 72.901C40.9843 73.109 40.8003 73.393 40.7043 73.753C40.6403 74.033 40.6083 74.437 40.6083 74.965C40.6083 75.493 40.6403 75.897 40.7043 76.177C40.7923 76.537 40.9723 76.825 41.2443 77.041C41.5243 77.249 41.8643 77.353 42.2643 77.353ZM48.8033 78.097C48.2273 78.097 47.7313 77.949 47.3153 77.653C46.8993 77.357 46.6113 76.949 46.4513 76.429C46.3393 76.061 46.2833 75.569 46.2833 74.953C46.2833 74.337 46.3393 73.849 46.4513 73.489C46.6033 72.977 46.8873 72.573 47.3033 72.277C47.7193 71.981 48.2233 71.833 48.8153 71.833C49.3833 71.833 49.8713 71.981 50.2793 72.277C50.6953 72.573 50.9793 72.973 51.1313 73.477C51.2433 73.821 51.2993 74.313 51.2993 74.953C51.2993 75.601 51.2433 76.093 51.1313 76.429C50.9793 76.949 50.6953 77.357 50.2793 77.653C49.8713 77.949 49.3793 78.097 48.8033 78.097ZM48.8033 77.353C49.1873 77.353 49.5153 77.249 49.7873 77.041C50.0593 76.825 50.2433 76.537 50.3393 76.177C50.4113 75.889 50.4473 75.485 50.4473 74.965C50.4473 74.437 50.4153 74.033 50.3513 73.753C50.2553 73.393 50.0673 73.109 49.7873 72.901C49.5153 72.685 49.1833 72.577 48.7913 72.577C48.3993 72.577 48.0673 72.685 47.7953 72.901C47.5233 73.109 47.3393 73.393 47.2433 73.753C47.1793 74.033 47.1473 74.437 47.1473 74.965C47.1473 75.493 47.1793 75.897 47.2433 76.177C47.3313 76.537 47.5113 76.825 47.7833 77.041C48.0633 77.249 48.4033 77.353 48.8033 77.353ZM53.1464 78.001C53.0664 78.001 53.0264 77.961 53.0264 77.881V69.721C53.0264 69.641 53.0664 69.601 53.1464 69.601H53.7584C53.8384 69.601 53.8784 69.641 53.8784 69.721V77.881C53.8784 77.961 53.8384 78.001 53.7584 78.001H53.1464ZM58.516 72.517C58.516 72.597 58.476 72.637 58.396 72.637H57.04C57.008 72.637 56.992 72.653 56.992 72.685V76.225C56.992 76.609 57.076 76.881 57.244 77.041C57.42 77.193 57.692 77.269 58.06 77.269H58.36C58.44 77.269 58.48 77.309 58.48 77.389V77.881C58.48 77.961 58.44 78.001 58.36 78.001C58.264 78.009 58.116 78.013 57.916 78.013C57.34 78.013 56.904 77.905 56.608 77.689C56.312 77.473 56.164 77.073 56.164 76.489V72.685C56.164 72.653 56.148 72.637 56.116 72.637H55.384C55.304 72.637 55.264 72.597 55.264 72.517V72.049C55.264 71.969 55.304 71.929 55.384 71.929H56.116C56.148 71.929 56.164 71.913 56.164 71.881V70.489C56.164 70.409 56.204 70.369 56.284 70.369H56.872C56.952 70.369 56.992 70.409 56.992 70.489V71.881C56.992 71.913 57.008 71.929 57.04 71.929H58.396C58.476 71.929 58.516 71.969 58.516 72.049V72.517ZM60.7391 70.825C60.5471 70.825 60.3871 70.761 60.2591 70.633C60.1311 70.505 60.0671 70.345 60.0671 70.153C60.0671 69.953 60.1311 69.793 60.2591 69.673C60.3871 69.545 60.5471 69.481 60.7391 69.481C60.9311 69.481 61.0911 69.545 61.2191 69.673C61.3471 69.793 61.4111 69.953 61.4111 70.153C61.4111 70.345 61.3471 70.505 61.2191 70.633C61.0911 70.761 60.9311 70.825 60.7391 70.825ZM60.4031 77.989C60.3231 77.989 60.2831 77.949 60.2831 77.869V72.037C60.2831 71.957 60.3231 71.917 60.4031 71.917H61.0151C61.0951 71.917 61.1351 71.957 61.1351 72.037V77.869C61.1351 77.949 61.0951 77.989 61.0151 77.989H60.4031ZM67.9377 73.441C68.0577 73.825 68.1177 74.333 68.1177 74.965C68.1177 75.605 68.0657 76.101 67.9617 76.453C67.8177 76.965 67.5537 77.369 67.1697 77.665C66.7937 77.953 66.3177 78.097 65.7417 78.097C65.4297 78.097 65.1417 78.037 64.8777 77.917C64.6137 77.789 64.3937 77.609 64.2177 77.377C64.2017 77.361 64.1857 77.357 64.1697 77.365C64.1617 77.365 64.1577 77.373 64.1577 77.389V80.209C64.1577 80.289 64.1177 80.329 64.0377 80.329H63.4257C63.3457 80.329 63.3057 80.289 63.3057 80.209V72.049C63.3057 71.969 63.3457 71.929 63.4257 71.929H64.0377C64.1177 71.929 64.1577 71.969 64.1577 72.049V72.553C64.1577 72.569 64.1617 72.581 64.1697 72.589C64.1857 72.589 64.2017 72.581 64.2177 72.565C64.3937 72.333 64.6097 72.153 64.8657 72.025C65.1297 71.897 65.4217 71.833 65.7417 71.833C66.3017 71.833 66.7697 71.977 67.1457 72.265C67.5297 72.553 67.7937 72.945 67.9377 73.441ZM66.9897 76.477C67.0777 76.301 67.1417 76.105 67.1817 75.889C67.2297 75.665 67.2537 75.357 67.2537 74.965C67.2537 74.589 67.2377 74.297 67.2057 74.089C67.1737 73.873 67.1177 73.681 67.0377 73.513C66.9417 73.225 66.7697 72.997 66.5217 72.829C66.2817 72.661 65.9937 72.577 65.6577 72.577C65.3377 72.577 65.0697 72.661 64.8537 72.829C64.6377 72.997 64.4777 73.221 64.3737 73.501C64.3017 73.661 64.2497 73.849 64.2177 74.065C64.1857 74.281 64.1697 74.581 64.1697 74.965C64.1697 75.349 64.1857 75.653 64.2177 75.877C64.2497 76.093 64.3057 76.285 64.3857 76.453C64.4817 76.725 64.6377 76.945 64.8537 77.113C65.0777 77.273 65.3417 77.353 65.6457 77.353C65.9657 77.353 66.2417 77.273 66.4737 77.113C66.7137 76.953 66.8857 76.741 66.9897 76.477ZM74.5372 78.097C73.9612 78.097 73.4652 77.949 73.0492 77.653C72.6412 77.349 72.3612 76.941 72.2092 76.429C72.1052 76.077 72.0532 75.581 72.0532 74.941C72.0532 74.365 72.1052 73.877 72.2092 73.477C72.3532 72.981 72.6332 72.585 73.0492 72.289C73.4652 71.985 73.9612 71.833 74.5372 71.833C75.1212 71.833 75.6252 71.981 76.0492 72.277C76.4812 72.573 76.7612 72.941 76.8892 73.381C76.9292 73.525 76.9532 73.645 76.9612 73.741V73.765C76.9612 73.821 76.9252 73.857 76.8532 73.873L76.2532 73.957H76.2292C76.1732 73.957 76.1372 73.921 76.1212 73.849L76.0852 73.669C76.0132 73.365 75.8372 73.109 75.5572 72.901C75.2772 72.685 74.9372 72.577 74.5372 72.577C74.1372 72.577 73.8012 72.685 73.5292 72.901C73.2652 73.109 73.0932 73.389 73.0132 73.741C72.9412 74.045 72.9052 74.449 72.9052 74.953C72.9052 75.481 72.9412 75.889 73.0132 76.177C73.0932 76.537 73.2652 76.825 73.5292 77.041C73.8012 77.249 74.1372 77.353 74.5372 77.353C74.9292 77.353 75.2652 77.253 75.5452 77.053C75.8332 76.845 76.0132 76.581 76.0852 76.261V76.213L76.0972 76.165C76.1052 76.085 76.1532 76.053 76.2412 76.069L76.8292 76.165C76.9092 76.181 76.9452 76.225 76.9372 76.297L76.8892 76.537C76.7692 77.001 76.4932 77.377 76.0612 77.665C75.6292 77.953 75.1212 78.097 74.5372 78.097ZM80.7604 78.097C80.1844 78.097 79.6884 77.949 79.2724 77.653C78.8564 77.357 78.5684 76.949 78.4084 76.429C78.2964 76.061 78.2404 75.569 78.2404 74.953C78.2404 74.337 78.2964 73.849 78.4084 73.489C78.5604 72.977 78.8444 72.573 79.2604 72.277C79.6764 71.981 80.1804 71.833 80.7724 71.833C81.3404 71.833 81.8284 71.981 82.2364 72.277C82.6524 72.573 82.9364 72.973 83.0884 73.477C83.2004 73.821 83.2564 74.313 83.2564 74.953C83.2564 75.601 83.2004 76.093 83.0884 76.429C82.9364 76.949 82.6524 77.357 82.2364 77.653C81.8284 77.949 81.3364 78.097 80.7604 78.097ZM80.7604 77.353C81.1444 77.353 81.4724 77.249 81.7444 77.041C82.0164 76.825 82.2004 76.537 82.2964 76.177C82.3684 75.889 82.4044 75.485 82.4044 74.965C82.4044 74.437 82.3724 74.033 82.3084 73.753C82.2124 73.393 82.0244 73.109 81.7444 72.901C81.4724 72.685 81.1404 72.577 80.7484 72.577C80.3564 72.577 80.0244 72.685 79.7524 72.901C79.4804 73.109 79.2964 73.393 79.2004 73.753C79.1364 74.033 79.1044 74.437 79.1044 74.965C79.1044 75.493 79.1364 75.897 79.2004 76.177C79.2884 76.537 79.4684 76.825 79.7404 77.041C80.0204 77.249 80.3604 77.353 80.7604 77.353ZM87.5034 71.845C88.1434 71.845 88.6514 72.033 89.0274 72.409C89.4114 72.785 89.6034 73.289 89.6034 73.921V77.881C89.6034 77.961 89.5634 78.001 89.4834 78.001H88.8714C88.7914 78.001 88.7514 77.961 88.7514 77.881V74.089C88.7514 73.649 88.6154 73.289 88.3434 73.009C88.0794 72.729 87.7354 72.589 87.3114 72.589C86.8714 72.589 86.5154 72.725 86.2434 72.997C85.9714 73.269 85.8354 73.625 85.8354 74.065V77.881C85.8354 77.961 85.7954 78.001 85.7154 78.001H85.1034C85.0234 78.001 84.9834 77.961 84.9834 77.881V72.049C84.9834 71.969 85.0234 71.929 85.1034 71.929H85.7154C85.7954 71.929 85.8354 71.969 85.8354 72.049V72.565C85.8354 72.581 85.8394 72.593 85.8474 72.601C85.8634 72.609 85.8754 72.605 85.8834 72.589C86.2354 72.093 86.7754 71.845 87.5034 71.845ZM94.1762 72.517C94.1762 72.597 94.1362 72.637 94.0562 72.637H92.7002C92.6682 72.637 92.6522 72.653 92.6522 72.685V76.225C92.6522 76.609 92.7362 76.881 92.9042 77.041C93.0802 77.193 93.3522 77.269 93.7202 77.269H94.0202C94.1002 77.269 94.1402 77.309 94.1402 77.389V77.881C94.1402 77.961 94.1002 78.001 94.0202 78.001C93.9242 78.009 93.7762 78.013 93.5762 78.013C93.0002 78.013 92.5642 77.905 92.2682 77.689C91.9722 77.473 91.8242 77.073 91.8242 76.489V72.685C91.8242 72.653 91.8082 72.637 91.7762 72.637H91.0442C90.9642 72.637 90.9242 72.597 90.9242 72.517V72.049C90.9242 71.969 90.9642 71.929 91.0442 71.929H91.7762C91.8082 71.929 91.8242 71.913 91.8242 71.881V70.489C91.8242 70.409 91.8642 70.369 91.9442 70.369H92.5322C92.6122 70.369 92.6522 70.409 92.6522 70.489V71.881C92.6522 71.913 92.6682 71.929 92.7002 71.929H94.0562C94.1362 71.929 94.1762 71.969 94.1762 72.049V72.517ZM100.304 73.945C100.336 74.169 100.352 74.449 100.352 74.785V75.169C100.352 75.249 100.312 75.289 100.232 75.289H96.3555C96.3235 75.289 96.3075 75.305 96.3075 75.337C96.3235 75.777 96.3475 76.061 96.3795 76.189C96.4675 76.549 96.6555 76.833 96.9435 77.041C97.2315 77.249 97.5995 77.353 98.0475 77.353C98.3835 77.353 98.6795 77.277 98.9355 77.125C99.1915 76.973 99.3915 76.757 99.5355 76.477C99.5835 76.405 99.6395 76.389 99.7035 76.429L100.172 76.705C100.236 76.745 100.252 76.801 100.22 76.873C100.02 77.257 99.7195 77.561 99.3195 77.785C98.9195 78.001 98.4595 78.109 97.9395 78.109C97.3715 78.101 96.8955 77.965 96.5115 77.701C96.1275 77.437 95.8515 77.069 95.6835 76.597C95.5395 76.213 95.4675 75.661 95.4675 74.941C95.4675 74.605 95.4715 74.333 95.4795 74.125C95.4955 73.909 95.5275 73.717 95.5755 73.549C95.7115 73.029 95.9835 72.613 96.3915 72.301C96.8075 71.989 97.3075 71.833 97.8915 71.833C98.6195 71.833 99.1795 72.017 99.5715 72.385C99.9635 72.753 100.208 73.273 100.304 73.945ZM97.8915 72.577C97.4995 72.577 97.1715 72.681 96.9075 72.889C96.6515 73.089 96.4835 73.361 96.4035 73.705C96.3555 73.873 96.3235 74.145 96.3075 74.521C96.3075 74.553 96.3235 74.569 96.3555 74.569H99.4635C99.4955 74.569 99.5115 74.553 99.5115 74.521C99.4955 74.161 99.4715 73.905 99.4395 73.753C99.3515 73.393 99.1715 73.109 98.8995 72.901C98.6355 72.685 98.2995 72.577 97.8915 72.577ZM104.566 71.845C105.206 71.845 105.714 72.033 106.09 72.409C106.474 72.785 106.666 73.289 106.666 73.921V77.881C106.666 77.961 106.626 78.001 106.546 78.001H105.934C105.854 78.001 105.814 77.961 105.814 77.881V74.089C105.814 73.649 105.678 73.289 105.406 73.009C105.142 72.729 104.798 72.589 104.374 72.589C103.934 72.589 103.578 72.725 103.306 72.997C103.034 73.269 102.898 73.625 102.898 74.065V77.881C102.898 77.961 102.858 78.001 102.778 78.001H102.166C102.086 78.001 102.046 77.961 102.046 77.881V72.049C102.046 71.969 102.086 71.929 102.166 71.929H102.778C102.858 71.929 102.898 71.969 102.898 72.049V72.565C102.898 72.581 102.902 72.593 102.91 72.601C102.926 72.609 102.938 72.605 102.946 72.589C103.298 72.093 103.838 71.845 104.566 71.845ZM111.239 72.517C111.239 72.597 111.199 72.637 111.119 72.637H109.763C109.731 72.637 109.715 72.653 109.715 72.685V76.225C109.715 76.609 109.799 76.881 109.967 77.041C110.143 77.193 110.415 77.269 110.783 77.269H111.083C111.163 77.269 111.203 77.309 111.203 77.389V77.881C111.203 77.961 111.163 78.001 111.083 78.001C110.987 78.009 110.839 78.013 110.639 78.013C110.063 78.013 109.627 77.905 109.331 77.689C109.035 77.473 108.887 77.073 108.887 76.489V72.685C108.887 72.653 108.871 72.637 108.839 72.637H108.107C108.027 72.637 107.987 72.597 107.987 72.517V72.049C107.987 71.969 108.027 71.929 108.107 71.929H108.839C108.871 71.929 108.887 71.913 108.887 71.881V70.489C108.887 70.409 108.927 70.369 109.007 70.369H109.595C109.675 70.369 109.715 70.409 109.715 70.489V71.881C109.715 71.913 109.731 71.929 109.763 71.929H111.119C111.199 71.929 111.239 71.969 111.239 72.049V72.517ZM113.582 77.977C113.382 77.977 113.218 77.913 113.09 77.785C112.97 77.657 112.91 77.497 112.91 77.305C112.91 77.105 112.97 76.945 113.09 76.825C113.218 76.697 113.382 76.633 113.582 76.633C113.774 76.633 113.934 76.697 114.062 76.825C114.19 76.945 114.254 77.105 114.254 77.305C114.254 77.497 114.19 77.657 114.062 77.785C113.934 77.913 113.774 77.977 113.582 77.977Z" fill="white"/>
<rect x="17.5" y="25.5" width="156" height="71.001" rx="3.5" stroke="white"/>
</g>
<defs>
<filter id="filter0_d" x="-8" y="0" width="207" height="122.001" filterUnits="userSpaceOnUse" color-interpolation-filters="sRGB">
<feFlood flood-opacity="0" result="BackgroundImageFix"/>
<feColorMatrix in="SourceAlpha" type="matrix" values="0 0 0 0 0 0 0 0 0 0 0 0 0 0 0 0 0 0 127 0"/>
<feOffset/>
<feGaussianBlur stdDeviation="8.5"/>
<feColorMatrix type="matrix" values="0 0 0 0 0 0 0 0 0 0 0 0 0 0 0 0 0 0 0.25 0"/>
<feBlend mode="normal" in2="BackgroundImageFix" result="effect1_dropShadow"/>
<feBlend mode="normal" in="SourceGraphic" in2="effect1_dropShadow" result="shape"/>
</filter>
</defs>
</svg>
