<svg width="340" height="257" viewBox="0 0 340 257" fill="none" xmlns="http://www.w3.org/2000/svg">
<g clip-path="url(#clip0)">
<path d="M87.5742 226.717C87.5742 226.717 89.2112 219.837 100.67 222.131C112.129 224.424 113.766 226.717 113.766 226.717H87.5742Z" fill="#3F3D56"/>
<path d="M31.0977 217.707C31.0977 217.707 32.7347 210.827 44.1937 213.121C55.6527 215.414 57.2897 217.707 57.2897 217.707H31.0977Z" fill="#3F3D56"/>
<path d="M126.862 226.717C126.862 226.717 117.695 221.148 113.766 226.717H126.862Z" fill="#3F3D56"/>
<path d="M84.1366 210.991C84.1366 210.991 74.9693 205.421 71.0405 210.991H84.1366Z" fill="#3F3D56"/>
<path d="M32.7102 205.873C35.4395 210.939 41.2319 213.113 41.2319 213.113C41.2319 213.113 42.5994 207.075 39.8701 202.01C37.1409 196.945 31.3484 194.77 31.3484 194.77C31.3484 194.77 29.981 200.808 32.7102 205.873Z" fill="#3F3D56"/>
<path d="M34.586 204.207C39.5135 207.174 41.4112 213.066 41.4112 213.066C41.4112 213.066 35.3199 214.149 30.3925 211.182C25.4651 208.216 23.5674 202.323 23.5674 202.323C23.5674 202.323 29.6586 201.24 34.586 204.207Z" fill="#274B28"/>
<path d="M305.132 222.622C305.132 222.622 306.769 215.742 318.228 218.035C329.687 220.329 331.324 222.622 331.324 222.622H305.132Z" fill="#3F3D56"/>
<path d="M278.94 226.717C270.978 225.47 263.323 224.409 255.975 223.535L258.805 217.871C257.822 217.544 253.566 220.82 253.566 220.82L257.168 204.438C252.257 205.093 249.965 221.803 249.965 221.803L244.399 216.233L247.139 222.539C224.653 220.175 205.249 219.437 188.938 219.606L191.36 214.759C190.378 214.431 186.122 217.707 186.122 217.707L189.723 201.326C184.812 201.981 182.52 218.69 182.52 218.69L176.955 213.121L179.856 219.8C168.684 220.125 157.535 221.023 146.454 222.492C148.871 214.957 157.31 207.715 157.31 207.715C150.821 209.735 147.445 213.026 145.698 216.077C145.344 200.599 147.724 185.179 152.727 170.528C152.727 170.528 139.631 200.015 141.595 219.673L141.845 223.165C130.451 224.944 124.734 226.717 124.734 226.717H278.94Z" fill="#3F3D56"/>
<path d="M193.488 241.625C193.488 241.625 253.73 232.779 291.054 241.625H193.488Z" fill="#3F3D56"/>
<path d="M104.763 253.747C104.763 253.747 165.004 244.901 202.328 253.747H104.763Z" fill="#3F3D56"/>
<path d="M216.406 257C216.406 257 252.086 247.945 274.192 257H216.406Z" fill="#3F3D56"/>
<path d="M316.063 220.643L315.481 220.342C323.038 205.721 318.997 186.735 314.277 173.381C311.072 164.406 306.983 155.771 302.072 147.604L302.626 147.254C307.562 155.463 311.672 164.141 314.894 173.162C319.658 186.638 323.728 205.814 316.063 220.643Z" fill="#3F3D56"/>
<path d="M321.668 147.372L317.42 170.635L318.064 170.753L322.312 147.49L321.668 147.372Z" fill="#3F3D56"/>
<path d="M293.422 167.192L292.942 167.639L314.878 191.228L315.357 190.782L293.422 167.192Z" fill="#3F3D56"/>
<path d="M332.857 193.105L321.73 208.507L322.261 208.891L333.387 193.489L332.857 193.105Z" fill="#3F3D56"/>
<path d="M323.63 141.204C325.438 141.204 326.904 139.737 326.904 137.928C326.904 136.118 325.438 134.652 323.63 134.652C321.822 134.652 320.356 136.118 320.356 137.928C320.356 139.737 321.822 141.204 323.63 141.204Z" fill="#274B28"/>
<path d="M287.943 166.432C289.751 166.432 291.217 164.966 291.217 163.156C291.217 161.347 289.751 159.88 287.943 159.88C286.135 159.88 284.669 161.347 284.669 163.156C284.669 164.966 286.135 166.432 287.943 166.432Z" fill="#3F3D56"/>
<path d="M302.349 169.709C304.157 169.709 305.623 168.242 305.623 166.432C305.623 164.623 304.157 163.156 302.349 163.156C300.541 163.156 299.075 164.623 299.075 166.432C299.075 168.242 300.541 169.709 302.349 169.709Z" fill="#3F3D56"/>
<path d="M295.801 182.487C297.609 182.487 299.075 181.02 299.075 179.21C299.075 177.401 297.609 175.934 295.801 175.934C293.993 175.934 292.527 177.401 292.527 179.21C292.527 181.02 293.993 182.487 295.801 182.487Z" fill="#274B28"/>
<path d="M336.726 190.677C338.534 190.677 340 189.21 340 187.401C340 185.592 338.534 184.125 336.726 184.125C334.918 184.125 333.452 185.592 333.452 187.401C333.452 189.21 334.918 190.677 336.726 190.677Z" fill="#3F3D56"/>
<path d="M325.922 194.281C327.73 194.281 329.196 192.814 329.196 191.005C329.196 189.196 327.73 187.729 325.922 187.729C324.114 187.729 322.648 189.196 322.648 191.005C322.648 192.814 324.114 194.281 325.922 194.281Z" fill="#3F3D56"/>
<path d="M333.452 204.766C335.26 204.766 336.726 203.299 336.726 201.489C336.726 199.68 335.26 198.213 333.452 198.213C331.644 198.213 330.178 199.68 330.178 201.489C330.178 203.299 331.644 204.766 333.452 204.766Z" fill="#3F3D56"/>
<path d="M299.075 145.136C300.883 145.136 302.349 143.669 302.349 141.86C302.349 140.05 300.883 138.583 299.075 138.583C297.267 138.583 295.801 140.05 295.801 141.86C295.801 143.669 297.267 145.136 299.075 145.136Z" fill="#3F3D56"/>
<path d="M107.474 124.492C107.474 164.992 83.4147 179.132 53.7368 179.132C24.0588 179.132 0 164.992 0 124.492C0 83.9934 53.7368 32.472 53.7368 32.472C53.7368 32.472 107.474 83.9933 107.474 124.492Z" fill="#F2F2F2"/>
<path d="M51.7794 172.937L52.3294 139.043L75.2333 97.1114L52.4158 133.726L52.663 118.486L68.4486 88.1486L52.7285 114.453L53.1738 87.0428L70.0768 62.8905L53.2435 82.7328L53.5215 32.472L51.7744 99.0078L51.9178 96.2632L34.7323 69.9386L51.6425 101.532L50.0412 132.145L49.9934 131.332L30.1814 103.629L49.9335 134.202L49.7331 138.031L49.6974 138.089L49.7138 138.403L45.6511 216.069H51.079L51.7302 175.953L71.4339 145.455L51.7794 172.937Z" fill="#3F3D56"/>
<path d="M284.723 112.419C284.723 161.896 255.331 179.171 219.074 179.171C182.817 179.171 153.425 161.896 153.425 112.419C153.425 62.9423 219.074 0 219.074 0C219.074 0 284.723 62.9423 284.723 112.419Z" fill="#F2F2F2"/>
<path d="M216.682 171.603L217.355 130.195L245.336 78.9682L217.46 123.7L217.762 105.081L237.047 68.0189L217.842 100.154L218.386 66.6678L239.036 37.1615L218.471 61.402L218.811 0L216.677 81.2853L216.852 77.9319L195.857 45.7721L216.515 84.369L214.559 121.767L214.501 120.775L190.297 86.9314L214.428 124.282L214.183 128.959L214.139 129.029L214.159 129.413L209.196 224.296H215.827L216.623 175.287L240.694 138.028L216.682 171.603Z" fill="#3F3D56"/>
<path d="M166.047 183.678L169.038 192.945C169.038 192.945 166.332 201.64 167.614 211.334C168.896 221.028 168.184 221.313 168.184 221.313C168.184 221.313 155.374 220.575 156.656 224.424C157.938 228.273 170.463 226.017 170.463 226.017C170.463 226.017 172.868 225.369 174.008 218.527C175.148 211.684 178.013 198.504 178.013 198.504L175.319 186.062L166.047 183.678Z" fill="#FFB8B8"/>
<path d="M167.044 164.719C167.044 164.719 161.631 166.714 161.631 172.132C161.631 177.549 163.625 184.961 164.907 185.389C166.189 185.817 174.736 191.662 176.303 187.527C177.87 183.393 167.044 164.719 167.044 164.719Z" fill="#274B28"/>
<path d="M212.344 228.868L223.74 228.441L232.43 227.158L229.866 235.711L208.783 236.281L212.344 228.868Z" fill="#FFB8B8"/>
<path d="M228.726 230.009C228.726 230.009 228.583 226.873 227.301 227.015C226.019 227.158 226.874 225.875 228.014 225.59C229.153 225.305 232.43 223.879 232.43 223.879L245.393 224.734C245.393 224.734 253.797 232.147 250.379 236.139C246.96 240.13 238.128 236.566 238.128 236.566L228.583 236.709C228.583 236.709 225.449 231.577 228.726 230.009Z" fill="#2F2E41"/>
<path d="M233.854 219.032L237.985 238.42L246.532 236.709L241.689 212.474L236.561 209.766L233.854 219.032Z" fill="#FFB8B8"/>
<path d="M184.708 216.609C184.708 216.609 160.776 227.443 170.89 238.42C170.89 238.42 170.89 243.552 181.574 242.554C192.258 241.556 212.914 239.703 213.911 240.273C214.908 240.843 218.042 229.011 215.335 228.441C212.629 227.871 209.352 227.158 209.352 227.158C209.352 227.158 212.201 226.73 212.201 224.307C212.201 224.307 220.321 223.736 222.743 218.604C225.165 213.472 227.444 209.623 227.444 209.623L232.999 223.879C232.999 223.879 239.41 212.047 244.253 217.321C244.253 217.321 238.84 183.251 234.709 180.115C230.578 176.978 227.729 175.981 223.883 178.832C220.036 181.683 216.475 188.953 216.475 188.953L184.708 216.609Z" fill="#2F2E41"/>
<path d="M241.831 232.575C240.835 233.327 239.884 234.136 238.982 234.998C237.843 236.139 236.276 235.569 236.133 234.998C235.991 234.428 233.427 235.426 233.142 239.56C232.857 243.694 231.148 247.401 235.706 248.684C240.264 249.967 240.122 253.673 240.122 253.673C243.729 255.405 247.868 255.66 251.661 254.386C258.071 252.247 255.792 249.967 255.792 249.967L247.245 235.854C247.245 235.854 244.965 231.577 241.831 232.575Z" fill="#2F2E41"/>
<path d="M218.184 161.868C218.184 161.868 231.86 166.572 233.284 167.57C234.709 168.568 241.119 173.272 237.985 175.695C234.851 178.119 232.287 179.687 226.162 177.834C220.036 175.981 213.199 170.278 213.199 170.278L218.184 161.868Z" fill="#FFB8B8"/>
<path d="M204.509 155.595C204.509 155.595 209.922 154.597 213.768 156.736C217.615 158.874 220.891 163.151 220.891 163.151C220.891 163.151 217.33 170.706 214.766 171.846C212.201 172.987 207.501 167.285 207.501 167.285L204.509 155.595Z" fill="#274B28"/>
<path d="M179.58 151.461C179.58 151.461 179.722 157.021 179.152 157.591C178.583 158.161 185.99 174.983 194.11 167.57C202.23 160.157 195.962 157.163 195.962 157.163C195.962 157.163 192.97 151.604 193.113 151.033C193.255 150.463 179.865 151.033 179.865 151.033L179.58 151.461Z" fill="#FFB8B8"/>
<path opacity="0.1" d="M179.58 151.461C179.58 151.461 179.722 157.021 179.152 157.591C178.583 158.161 185.99 174.983 194.11 167.57C202.23 160.157 195.962 157.163 195.962 157.163C195.962 157.163 192.97 151.604 193.113 151.033C193.255 150.463 179.865 151.033 179.865 151.033L179.58 151.461Z" fill="black"/>
<path d="M181.859 162.153C181.859 162.153 187.272 165.859 189.552 165.004C191.831 164.148 194.68 160.442 194.965 160.157C195.25 159.872 209.78 189.096 209.78 189.096C209.78 189.096 207.643 199.787 201.945 202.923C196.247 206.06 196.318 208.554 195.606 210.693C194.893 212.831 185.705 203.921 185.705 203.921L179.865 179.117V164.006L181.859 162.153Z" fill="#274B28"/>
<path d="M179.509 155.524C179.509 155.524 177.728 155.167 175.876 156.736C174.024 158.304 165.335 164.148 165.762 164.719C166.189 165.289 170.035 173.414 170.89 176.693C171.745 179.972 173.027 180.4 173.027 180.4C173.027 180.4 176.018 182.538 175.591 184.106C175.164 185.674 173.312 207.057 175.876 211.762C178.44 216.466 178.013 220.6 177.301 221.741C176.588 222.881 184.138 218.462 184.138 218.462C184.138 218.462 195.392 209.338 196.247 206.63C196.799 204.768 197.181 202.859 197.386 200.928C197.386 200.928 190.121 172.132 187.842 170.563C185.563 168.995 179.509 155.524 179.509 155.524Z" fill="#575A89"/>
<path d="M195.158 155.637C195.158 155.637 198.668 153.457 199.381 154.027C200.093 154.597 206.788 154.597 206.931 155.167C207.073 155.738 207.358 169.423 212.201 172.987C217.045 176.551 213.911 183.678 213.911 183.678L217.472 189.381C217.472 189.381 198.099 208.054 199.381 201.64C199.452 201.284 199.381 201.213 199.381 201.213C199.381 201.213 191.831 168.853 192.828 167.142C193.825 165.431 195.637 157.674 195.158 155.637Z" fill="#575A89"/>
<path d="M225.022 168.71L205.649 175.41C205.649 175.41 186.418 179.972 189.409 185.247C192.401 190.521 205.079 181.54 205.079 181.54L230.878 178.647C230.878 178.647 241.119 169.993 225.022 168.71Z" fill="#FFB8B8"/>
<path d="M187.272 156.736C193.094 156.736 197.814 152.013 197.814 146.187C197.814 140.36 193.094 135.637 187.272 135.637C181.45 135.637 176.731 140.36 176.731 146.187C176.731 152.013 181.45 156.736 187.272 156.736Z" fill="#FFB8B8"/>
<path d="M178.877 135.703L176.927 134.993C176.927 134.993 181.005 130.913 186.677 131.268L185.082 129.671C185.082 129.671 188.982 128.252 192.527 131.977C194.391 133.936 196.547 136.237 197.891 138.831H199.98L199.108 140.575L202.158 142.319L199.027 142.006C199.324 143.512 199.222 145.069 198.731 146.524L198.022 148.475C198.022 148.475 195.186 142.798 195.186 142.089V143.863C195.186 143.863 193.236 142.266 193.236 141.202L192.172 142.444L191.641 140.492L185.082 142.444L186.145 140.847L182.068 141.379L183.664 139.428C183.664 139.428 179.055 141.734 178.877 143.685C178.7 145.637 176.396 148.12 176.396 148.12L175.332 146.346C175.332 146.346 173.737 138.364 178.877 135.703Z" fill="#2F2E41"/>
</g>
<defs>
<clipPath id="clip0">
<rect width="340" height="257" fill="white"/>
</clipPath>
</defs>
</svg>
