<svg width="338" height="153" viewBox="0 0 338 153" fill="none" xmlns="http://www.w3.org/2000/svg">
<g clip-path="url(#clip0)">
<path d="M305.581 61.6191H295.365V97.0508H305.581V61.6191Z" fill="#F2F2F2"/>
<path d="M312.327 90.3855L287.48 60.7686L237.607 61.2254L207.352 90.7517L207.964 91.1454H207.745V152.56H312.26V91.1454L312.327 90.3855Z" fill="#F2F2F2"/>
<path d="M287.507 60.8318L256.467 97.2946V152.561H312.26V90.3581L287.507 60.8318Z" fill="#E6E6E6"/>
<path d="M290.257 121.998H278.863V132.089H290.257V121.998Z" fill="#3F3D56"/>
<path d="M290.257 104.531H278.863V114.462H290.257V104.531Z" fill="#3F3D56"/>
<path d="M290.257 121.998H278.863V132.089H290.257V121.998Z" fill="white"/>
<path d="M290.257 104.531H278.863V114.462H290.257V104.531Z" fill="white"/>
<path d="M239.619 119.32H228.225V129.411H239.619V119.32Z" fill="white"/>
<path d="M239.619 101.853H228.225V111.784H239.619V101.853Z" fill="white"/>
<path d="M224.964 61.6191H214.749V97.0508H224.964V61.6191Z" fill="#F2F2F2"/>
<path d="M231.711 90.3855L206.864 60.7686L156.99 61.2254L126.736 90.7517L127.347 91.1454H127.129V152.56H231.644V91.1454L231.711 90.3855Z" fill="#F2F2F2"/>
<path d="M206.89 60.8318L175.85 97.2946V152.561H231.644V90.3581L206.89 60.8318Z" fill="#E6E6E6"/>
<path d="M209.641 121.998H198.246V132.089H209.641V121.998Z" fill="#3F3D56"/>
<path d="M209.641 104.531H198.246V114.462H209.641V104.531Z" fill="#3F3D56"/>
<path d="M209.641 121.998H198.246V132.089H209.641V121.998Z" fill="white"/>
<path d="M209.641 104.531H198.246V114.462H209.641V104.531Z" fill="white"/>
<path d="M159.003 119.32H147.608V129.411H159.003V119.32Z" fill="white"/>
<path d="M159.003 101.853H147.608V111.784H159.003V101.853Z" fill="white"/>
<path d="M142.418 31.0408H128.767V78.3861H142.418V31.0408Z" fill="#F2F2F2"/>
<path d="M151.433 69.4793L118.232 29.9043L51.5885 30.5145L11.1614 69.969L11.978 70.4951H11.6864V152.56H151.344V70.4951L151.433 69.4793Z" fill="#F2F2F2"/>
<path d="M118.267 29.9885L76.7896 78.7118V152.56H151.343V69.443L118.267 29.9885Z" fill="#E6E6E6"/>
<path d="M121.942 111.721H106.716V125.205H121.942V111.721Z" fill="#3F3D56"/>
<path d="M121.942 88.3811H106.716V101.652H121.942V88.3811Z" fill="#3F3D56"/>
<path d="M121.942 111.721H106.716V125.205H121.942V111.721Z" fill="white"/>
<path d="M121.942 88.3811H106.716V101.652H121.942V88.3811Z" fill="white"/>
<path d="M54.2774 108.143H39.0516V121.627H54.2774V108.143Z" fill="white"/>
<path d="M54.2774 84.8032H39.0516V98.0737H54.2774V84.8032Z" fill="white"/>
<path d="M326.514 152.257H0V152.936H326.514V152.257Z" fill="#3F3D56"/>
<path d="M51.4428 139.777C56.8865 139.777 61.2995 130.755 61.2995 119.626C61.2995 108.497 56.8865 99.4746 51.4428 99.4746C45.9992 99.4746 41.5862 108.497 41.5862 119.626C41.5862 130.755 45.9992 139.777 51.4428 139.777Z" fill="#3F3D56"/>
<path d="M52.353 152.61C48.4053 128.878 52.3132 105.232 52.3532 104.996L53.1211 105.126C53.0813 105.361 49.1958 128.883 53.1213 152.482L52.353 152.61Z" fill="#274B28"/>
<path d="M60.1207 115.293L51.2076 120.069L51.575 120.758L60.4881 115.981L60.1207 115.293Z" fill="#274B28"/>
<path d="M42.1681 117.685L41.8005 118.374L50.7125 123.153L51.0801 122.465L42.1681 117.685Z" fill="#274B28"/>
<path d="M27.7603 127.961C38.4075 127.961 47.0387 110.315 47.0387 88.5482C47.0387 66.7809 38.4075 49.135 27.7603 49.135C17.1131 49.135 8.48181 66.7809 8.48181 88.5482C8.48181 110.315 17.1131 127.961 27.7603 127.961Z" fill="#274B28"/>
<path d="M29.9076 153C22.1966 106.644 29.8298 60.4572 29.9077 59.9961L30.6756 60.1264C30.5979 60.5864 22.9872 106.649 30.6758 152.872L29.9076 153Z" fill="#3F3D56"/>
<path d="M44.9088 80.4019L27.4755 89.7451L27.8429 90.4334L45.2762 81.0902L44.9088 80.4019Z" fill="#3F3D56"/>
<path d="M9.4445 85.0821L9.0769 85.7703L26.5077 95.1182L26.8753 94.4301L9.4445 85.0821Z" fill="#3F3D56"/>
<path d="M73.4196 118.76C87.9894 118.76 99.8006 94.6132 99.8006 64.8264C99.8006 35.0396 87.9894 10.8926 73.4196 10.8926C58.8498 10.8926 47.0386 35.0396 47.0386 64.8264C47.0386 94.6132 58.8498 118.76 73.4196 118.76Z" fill="#274B28"/>
<path d="M76.4999 153C65.9521 89.5892 76.3934 26.41 76.5001 25.7793L77.268 25.9096C77.1615 26.5392 66.7426 89.5942 77.2682 152.872L76.4999 153Z" fill="#3F3D56"/>
<path d="M96.954 53.8055L73.0979 66.5908L73.4653 67.2791L97.3214 54.4937L96.954 53.8055Z" fill="#3F3D56"/>
<path d="M48.2882 60.2103L47.9207 60.8984L71.7734 73.6901L72.141 73.0019L48.2882 60.2103Z" fill="#3F3D56"/>
<path d="M295.039 139.777C300.483 139.777 304.896 130.755 304.896 119.626C304.896 108.497 300.483 99.4746 295.039 99.4746C289.595 99.4746 285.182 108.497 285.182 119.626C285.182 130.755 289.595 139.777 295.039 139.777Z" fill="#3F3D56"/>
<path d="M294.129 152.61C298.076 128.878 294.168 105.232 294.129 104.996L293.361 105.126C293.4 105.361 297.286 128.883 293.36 152.482L294.129 152.61Z" fill="#274B28"/>
<path d="M286.361 115.292L285.994 115.981L294.907 120.758L295.274 120.069L286.361 115.292Z" fill="#274B28"/>
<path d="M304.314 117.686L295.402 122.465L295.769 123.153L304.681 118.374L304.314 117.686Z" fill="#274B28"/>
<path d="M318.722 127.961C329.369 127.961 338 110.315 338 88.5482C338 66.7809 329.369 49.135 318.722 49.135C308.074 49.135 299.443 66.7809 299.443 88.5482C299.443 110.315 308.074 127.961 318.722 127.961Z" fill="#274B28"/>
<path d="M316.574 153C324.285 106.644 316.652 60.4572 316.574 59.9961L315.806 60.1264C315.884 60.5864 323.495 106.649 315.806 152.872L316.574 153Z" fill="#3F3D56"/>
<path d="M301.573 80.4019L301.205 81.0901L318.639 90.4332L319.006 89.745L301.573 80.4019Z" fill="#3F3D56"/>
<path d="M337.037 85.0822L319.607 94.4302L319.974 95.1183L337.405 85.7703L337.037 85.0822Z" fill="#3F3D56"/>
<path d="M273.062 118.76C287.632 118.76 299.443 94.6132 299.443 64.8264C299.443 35.0396 287.632 10.8926 273.062 10.8926C258.492 10.8926 246.681 35.0396 246.681 64.8264C246.681 94.6132 258.492 118.76 273.062 118.76Z" fill="#274B28"/>
<path d="M269.982 153C280.53 89.5892 270.089 26.41 269.982 25.7793L269.214 25.9096C269.32 26.5392 279.739 89.5942 269.214 152.872L269.982 153Z" fill="#3F3D56"/>
<path d="M249.528 53.8054L249.16 54.4937L273.016 67.279L273.384 66.5907L249.528 53.8054Z" fill="#3F3D56"/>
<path d="M298.193 60.2101L274.341 73.0017L274.708 73.6898L298.561 60.8982L298.193 60.2101Z" fill="#3F3D56"/>
<path d="M199.713 34.4364L202.832 31.9376C200.409 31.6698 199.414 32.9935 199.007 34.0412C197.114 33.2539 195.054 34.2858 195.054 34.2858L201.293 36.5552C200.978 35.7128 200.43 34.9779 199.713 34.4364Z" fill="#3F3D56"/>
<path d="M123.5 12.3761L126.619 9.87728C124.196 9.6095 123.201 10.9332 122.794 11.9809C120.901 11.1936 118.841 12.2255 118.841 12.2255L125.08 14.4949C124.765 13.6525 124.217 12.9176 123.5 12.3761Z" fill="#3F3D56"/>
<path d="M247.812 2.53386L250.931 0.0349952C248.508 -0.232784 247.513 1.09093 247.105 2.13866C245.213 1.35128 243.153 2.38318 243.153 2.38318L249.392 4.65258C249.077 3.81025 248.529 3.07528 247.812 2.53386Z" fill="#3F3D56"/>
<path d="M254.108 148.331C253.279 148.331 252.465 148.55 251.747 148.966C251.019 148.306 250.114 147.872 249.144 147.716C248.174 147.561 247.179 147.691 246.282 148.091C245.384 148.491 244.621 149.144 244.086 149.97C243.552 150.795 243.268 151.759 243.269 152.743H258.833C258.748 151.546 258.214 150.425 257.337 149.606C256.46 148.787 255.306 148.332 254.108 148.331Z" fill="#3F3D56"/>
<path d="M95.9237 148.331C95.0948 148.331 94.2805 148.55 93.5629 148.966C92.8342 148.306 91.9298 147.872 90.9596 147.716C89.9894 147.561 88.995 147.691 88.0973 148.091C87.1995 148.491 86.4369 149.144 85.9021 149.97C85.3673 150.795 85.0833 151.759 85.0845 152.743H100.649C100.564 151.546 100.029 150.425 99.1525 149.606C98.2758 148.787 97.1221 148.332 95.9237 148.331Z" fill="#3F3D56"/>
<path d="M176.879 148.331C176.05 148.331 175.236 148.55 174.518 148.966C173.789 148.306 172.885 147.872 171.915 147.716C170.945 147.561 169.95 147.691 169.052 148.091C168.155 148.491 167.392 149.144 166.857 149.97C166.323 150.795 166.038 151.759 166.04 152.743H181.604C181.519 151.546 180.985 150.425 180.108 149.606C179.231 148.787 178.077 148.332 176.879 148.331Z" fill="#3F3D56"/>
<path d="M159.796 137.191H114.892V138.642H121.895V152.43H123.344V138.642H150.62V152.43H152.069V138.642H159.796V137.191Z" fill="#3F3D56"/>
<path d="M159.885 132.849H114.981V134.3H159.885V132.849Z" fill="#3F3D56"/>
<path d="M159.885 129.22H114.981V130.672H159.885V129.22Z" fill="#3F3D56"/>
<path d="M159.885 125.592H114.981V127.044H159.885V125.592Z" fill="#3F3D56"/>
<path d="M229.912 137.191H185.008V138.642H192.011V152.43H193.46V138.642H220.736V152.43H222.185V138.642H229.912V137.191Z" fill="#3F3D56"/>
<path d="M230.001 132.849H185.097V134.3H230.001V132.849Z" fill="#3F3D56"/>
<path d="M230.001 129.22H185.097V130.672H230.001V129.22Z" fill="#3F3D56"/>
<path d="M230.001 125.592H185.097V127.044H230.001V125.592Z" fill="#3F3D56"/>
</g>
<defs>
<clipPath id="clip0">
<rect width="338" height="153" fill="white"/>
</clipPath>
</defs>
</svg>
