<svg width="290" height="121" viewBox="0 0 290 121" fill="none" xmlns="http://www.w3.org/2000/svg">
<g opacity="0.24" clip-path="url(#clip0)">
<path d="M261.964 28.8229C268.005 28.8229 269.999 21.9948 273.369 17.4867C276.014 13.9477 280 17.189 280 21.6073V113C280 117.418 276.418 121 272 121H-346.193C-348.988 121 -351.254 118.734 -351.254 115.939C-351.254 113.145 -348.926 110.724 -346.251 111.531C-341.362 113.007 -340.317 116.476 -333.218 116.476C-324.2 116.476 -324.2 100.581 -315.182 100.581C-306.164 100.581 -307.667 105.472 -297.146 105.472C-286.625 105.472 -289.631 114.628 -279.11 114.628C-268.589 114.628 -270.844 111.151 -261.075 111.151C-251.305 111.151 -253.184 94.5764 -243.039 94.5764C-232.894 94.5764 -235.524 99.9834 -225.003 99.9834C-214.482 99.9834 -216.361 107.428 -206.967 107.428C-197.573 107.428 -199.076 82.7027 -188.931 82.7027C-178.786 82.7027 -179.913 91.2616 -170.895 91.2616C-161.878 91.2616 -163.381 79.2792 -152.86 79.2792C-142.339 79.2792 -144.593 86.9414 -134.824 86.9414C-125.054 86.9414 -126.557 55.6134 -116.788 55.6134C-107.019 55.6134 -108.897 64.3352 -98.7522 64.3352C-88.6071 64.3352 -91.2373 70.0955 -80.7164 70.0955C-70.1955 70.0955 -72.8257 55.1515 -62.6805 55.1515C-52.5354 55.1515 -55.1656 62.4876 -44.6447 62.4876C-34.1238 62.4876 -36.0026 50.3966 -26.6089 50.3966C-17.2153 50.3966 -18.3425 30.1815 -8.57309 30.1815C1.19629 30.1815 -0.306702 64.0092 9.46271 64.0092C19.2321 64.0092 18.1049 40.3162 27.4985 40.3162C36.8922 40.3162 35.0135 50.6955 45.5343 50.6955C56.0552 50.6955 53.8008 60.0151 63.5702 60.0151C73.3396 60.0151 72.2123 44.582 81.606 44.582C90.9996 44.582 90.2481 59.2543 99.6418 59.2543C109.035 59.2543 107.908 52.7333 117.678 52.7333C127.447 52.7333 125.944 39.2837 135.713 39.2837C145.483 39.2837 143.98 44.6635 153.749 44.6635C163.519 44.6635 162.767 25.019 171.785 25.019C180.803 25.019 179.3 51.9453 189.821 51.9453C200.342 51.9453 197.712 33.6594 207.857 33.6594C218.002 33.6594 216.499 41.1857 225.893 41.1857C235.286 41.1857 234.535 22.4378 243.928 22.4378C253.322 22.4378 252.946 28.8229 261.964 28.8229Z" fill="#C8FFCC"/>
</g>
<g clip-path="url(#clip1)">
<path d="M280 13.6073C270.982 13.6073 270.982 28.8229 261.964 28.8229C252.946 28.8229 253.322 22.4378 243.928 22.4378C234.535 22.4378 235.286 41.1857 225.893 41.1857C216.499 41.1857 218.002 33.6594 207.857 33.6594C197.712 33.6594 200.342 51.9453 189.821 51.9453C179.3 51.9453 180.803 25.019 171.785 25.019C162.767 25.019 163.519 44.6636 153.749 44.6636C143.98 44.6636 145.483 39.2837 135.713 39.2837C125.944 39.2837 127.447 52.7333 117.678 52.7333C107.908 52.7333 109.035 59.2543 99.6418 59.2543C90.2481 59.2543 90.9996 44.582 81.606 44.582C72.2123 44.582 73.3396 60.0151 63.5702 60.0151C53.8008 60.0151 56.0552 50.6955 45.5343 50.6955C35.0135 50.6955 36.8922 40.3162 27.4985 40.3162C18.1049 40.3162 19.2321 64.0092 9.46271 64.0092C-0.306689 64.0092 1.1963 30.1815 -8.5731 30.1815C-18.3425 30.1815 -17.2153 50.3966 -26.6089 50.3966C-36.0026 50.3966 -34.1238 62.4876 -44.6447 62.4876C-55.1656 62.4876 -52.5354 55.1515 -62.6806 55.1515C-72.8257 55.1515 -70.1955 70.0955 -80.7164 70.0955C-91.2373 70.0955 -88.607 64.3352 -98.7522 64.3352C-108.897 64.3352 -107.019 55.6134 -116.788 55.6134C-126.557 55.6134 -125.054 86.9414 -134.824 86.9414C-144.593 86.9414 -142.339 79.2792 -152.86 79.2792C-163.381 79.2792 -161.878 91.2616 -170.895 91.2616C-179.913 91.2616 -178.786 82.7027 -188.931 82.7027C-199.076 82.7027 -197.573 107.428 -206.967 107.428C-216.361 107.428 -214.482 99.9834 -225.003 99.9834C-235.524 99.9834 -232.894 94.5764 -243.039 94.5764C-253.184 94.5764 -251.305 111.151 -261.075 111.151C-270.844 111.151 -268.589 114.628 -279.11 114.628C-289.631 114.628 -286.625 105.472 -297.146 105.472C-307.667 105.472 -306.164 100.581 -315.182 100.581C-324.2 100.581 -324.2 116.476 -333.218 116.476C-342.236 116.476 -341.484 110.879 -351.254 110.879" stroke="#274B28" stroke-width="0.751492"/>
</g>
<rect x="0.375746" y="-0.375746" width="6.75149" height="6.75149" rx="3.37575" transform="matrix(-1 0 0 1 265.74 26.1062)" fill="#274B28" stroke="white" stroke-width="0.751492"/>
<rect x="0.375746" y="-0.375746" width="6.75149" height="6.75149" rx="3.37575" transform="matrix(-1 0 0 1 247.704 19.6973)" fill="#274B28" stroke="white" stroke-width="0.751492"/>
<rect x="0.375746" y="-0.375746" width="6.75149" height="6.75149" rx="3.37575" transform="matrix(-1 0 0 1 229.668 38.5471)" fill="#274B28" stroke="white" stroke-width="0.751492"/>
<rect x="0.375746" y="-0.375746" width="6.75149" height="6.75149" rx="3.37575" transform="matrix(-1 0 0 1 211.632 31.0072)" fill="#274B28" stroke="white" stroke-width="0.751492"/>
<rect x="0.375746" y="-0.375746" width="6.75149" height="6.75149" rx="3.37575" transform="matrix(-1 0 0 1 283.775 10.6494)" fill="#274B28" stroke="white" stroke-width="0.751492"/>
<rect x="0.375746" y="-0.375746" width="6.75149" height="6.75149" rx="3.37575" transform="matrix(-1 0 0 1 175.56 22.3363)" fill="#274B28" stroke="white" stroke-width="0.751492"/>
<rect x="0.375746" y="-0.375746" width="6.75149" height="6.75149" rx="3.37575" transform="matrix(-1 0 0 1 157.525 42.317)" fill="#274B28" stroke="white" stroke-width="0.751492"/>
<rect x="0.375746" y="-0.375746" width="6.75149" height="6.75149" rx="3.37575" transform="matrix(-1 0 0 1 139.489 37.0391)" fill="#274B28" stroke="white" stroke-width="0.751492"/>
<rect x="0.375746" y="-0.375746" width="6.75149" height="6.75149" rx="3.37575" transform="matrix(-1 0 0 1 121.453 50.2339)" fill="#274B28" stroke="white" stroke-width="0.751492"/>
<rect x="0.375746" y="-0.375746" width="6.75149" height="6.75149" rx="3.37575" transform="matrix(-1 0 0 1 193.596 49.4799)" fill="#274B28" stroke="white" stroke-width="0.751492"/>
<rect x="0.375746" y="-0.375746" width="6.75149" height="6.75149" rx="3.37575" transform="matrix(-1 0 0 1 85.3813 41.94)" fill="#274B28" stroke="white" stroke-width="0.751492"/>
<rect x="0.375746" y="-0.375746" width="6.75149" height="6.75149" rx="3.37575" transform="matrix(-1 0 0 1 67.3455 57.3969)" fill="#274B28" stroke="white" stroke-width="0.751492"/>
<rect x="0.375746" y="-0.375746" width="6.75149" height="6.75149" rx="3.37575" transform="matrix(-1 0 0 1 49.3097 48.3489)" fill="#274B28" stroke="white" stroke-width="0.751492"/>
<rect x="0.375746" y="-0.375746" width="6.75149" height="6.75149" rx="3.37575" transform="matrix(-1 0 0 1 31.2739 37.7931)" fill="#274B28" stroke="white" stroke-width="0.751492"/>
<rect x="0.375746" y="-0.375746" width="6.75149" height="6.75149" rx="3.37575" transform="matrix(-1 0 0 1 13.2381 61.5438)" fill="#274B28" stroke="white" stroke-width="0.751492"/>
<rect x="0.375746" y="-0.375746" width="6.75149" height="6.75149" rx="3.37575" transform="matrix(-1 0 0 1 103.417 57.0199)" fill="#274B28" stroke="white" stroke-width="0.751492"/>
<defs>
<clipPath id="clip0">
<rect width="271" height="107.393" fill="white" transform="matrix(-1 0 0 1 280 13.6073)"/>
</clipPath>
<clipPath id="clip1">
<rect width="271" height="107.444" fill="white" transform="matrix(-1 0 0 1 280 13.5563)"/>
</clipPath>
</defs>
</svg>
