<svg width="123" height="123" viewBox="0 0 123 123" fill="none" xmlns="http://www.w3.org/2000/svg">
<circle opacity="0.4" cx="61.7825" cy="61.7825" r="52.8369" stroke="#E8F5E9" stroke-width="16"/>
<path d="M53.1579 114.092C60.9424 115.413 68.9241 114.973 76.5161 112.804C84.1081 110.634 91.1175 106.791 97.0287 101.557C102.94 96.322 107.603 89.8291 110.675 82.5552C113.746 75.2814 115.149 67.4115 114.779 59.5244C114.409 51.6372 112.276 43.9332 108.537 36.9788C104.798 30.0244 99.5475 23.9965 93.1722 19.3382C86.7969 14.6799 79.4586 11.5096 71.6968 10.0605C63.9351 8.61147 55.9473 8.9204 48.3206 10.9646" stroke="white" stroke-width="16"/>
<path d="M42.3877 52.0537C42.6677 51.9137 43.2277 51.7457 44.0957 51.7457C45.6357 51.7457 47.3157 52.6417 47.3157 54.7417C47.3157 56.3937 46.0837 57.8217 43.8717 57.8217C41.8557 57.8217 40.3437 56.3937 40.2597 54.2937L36.9837 54.9657C37.2077 57.9897 39.6997 60.7057 43.8997 60.7057C48.2117 60.7057 50.7037 57.8777 50.7037 54.7697C50.7037 51.2697 47.9877 49.3097 45.2717 49.2537L50.1997 44.9417V42.1417H37.5997V45.0817H45.8597L40.8477 49.5617L42.3877 52.0537ZM59.5736 49.7017C57.7816 49.6737 56.6056 48.5537 56.6056 47.0417C56.6056 45.6697 57.7256 44.4657 59.5736 44.4657C61.4216 44.4657 62.5696 45.6697 62.5696 47.0417C62.5696 48.5537 61.3936 49.6737 59.5736 49.7017ZM59.5736 57.8777C57.3896 57.8777 56.1856 56.5897 56.1856 55.1057C56.1856 53.6217 57.3896 52.3057 59.5736 52.3057C61.7856 52.3057 62.9896 53.6217 62.9896 55.1057C62.9896 56.5897 61.7856 57.8777 59.5736 57.8777ZM59.5736 60.7057C63.7456 60.7057 66.3216 58.4657 66.3216 55.4417C66.3216 53.3697 64.8656 51.6617 62.9616 50.9897C64.6976 50.3457 65.9016 48.6097 65.9016 46.8457C65.9016 43.8217 63.2136 41.7217 59.5736 41.7217C55.9336 41.7217 53.2736 43.8217 53.2736 46.8457C53.2736 48.6377 54.4776 50.3457 56.2136 50.9897C54.2816 51.6617 52.8536 53.3697 52.8536 55.4417C52.8536 58.4657 55.4296 60.7057 59.5736 60.7057ZM71.4036 46.3977C71.4036 45.1937 72.2716 44.3537 73.3916 44.3537C74.5116 44.3537 75.3516 45.1937 75.3516 46.3977C75.3516 47.6017 74.5116 48.4697 73.3916 48.4697C72.2716 48.4697 71.4036 47.6017 71.4036 46.3977ZM68.7996 46.3977C68.7996 48.9177 70.8996 50.8777 73.3636 50.8777C75.8556 50.8777 77.9836 48.9457 77.9836 46.3977C77.9836 43.8777 75.8556 41.8897 73.3916 41.8897C70.8996 41.8897 68.7996 43.8777 68.7996 46.3977ZM83.1076 56.0577C83.1076 54.8537 83.9756 54.0137 85.0956 54.0137C86.2156 54.0137 87.0556 54.8537 87.0556 56.0577C87.0556 57.2617 86.2156 58.1297 85.0956 58.1297C83.9756 58.1297 83.1076 57.2617 83.1076 56.0577ZM80.5036 56.0577C80.5036 58.5777 82.6036 60.5377 85.0676 60.5377C87.5596 60.5377 89.6876 58.6057 89.6876 56.0577C89.6876 53.5377 87.5596 51.5497 85.0956 51.5497C82.6036 51.5497 80.5036 53.5377 80.5036 56.0577ZM74.2596 60.2857L87.1676 42.1417H84.2556L71.3196 60.2857H74.2596Z" fill="white"/>
<path d="M29.2714 71.9465V80.4545H32.2474C33.8074 80.4545 34.8754 79.4825 34.8754 78.1385C34.8754 77.1905 34.3114 76.3265 33.3394 76.0865C34.0834 75.8105 34.6114 75.1625 34.6114 74.2505C34.6114 72.9065 33.6634 71.9465 32.0434 71.9465H29.2714ZM30.4474 75.6665V72.9785H31.8634C32.8354 72.9785 33.4234 73.5065 33.4234 74.3105C33.4234 75.1025 32.8594 75.6665 31.9114 75.6665H30.4474ZM30.4474 79.4225V76.6745H32.1274C33.1594 76.6745 33.6754 77.2505 33.6754 78.0665C33.6754 78.8945 33.0274 79.4225 32.0794 79.4225H30.4474ZM37.4862 80.4545V74.6825H36.3702V80.4545H37.4862ZM36.1182 72.4985C36.1182 72.9425 36.4782 73.3025 36.9222 73.3025C37.3782 73.3025 37.7382 72.9425 37.7382 72.4985C37.7382 72.0425 37.3782 71.6825 36.9222 71.6825C36.4782 71.6825 36.1182 72.0425 36.1182 72.4985ZM41.8773 79.6265C40.9173 79.6265 40.0773 78.9065 40.0773 77.5625C40.0773 76.2305 40.9173 75.5105 41.8773 75.5105C42.8373 75.5105 43.6773 76.2305 43.6773 77.5625C43.6773 78.9065 42.8373 79.6265 41.8773 79.6265ZM41.8773 74.5025C40.1493 74.5025 38.9253 75.8105 38.9253 77.5625C38.9253 79.3265 40.1493 80.6345 41.8773 80.6345C43.6053 80.6345 44.8293 79.3265 44.8293 77.5625C44.8293 75.8105 43.6053 74.5025 41.8773 74.5025ZM50.5685 79.4105V72.9905H52.3325C53.9045 72.9905 55.2005 74.0705 55.2005 76.2185C55.2005 78.3545 53.8805 79.4105 52.3085 79.4105H50.5685ZM52.3445 80.4545C54.5045 80.4545 56.4125 79.0025 56.4125 76.2185C56.4125 73.4225 54.5285 71.9465 52.3685 71.9465H49.3925V80.4545H52.3445ZM59.0252 80.4545V74.6825H57.9092V80.4545H59.0252ZM57.6572 72.4985C57.6572 72.9425 58.0172 73.3025 58.4612 73.3025C58.9172 73.3025 59.2772 72.9425 59.2772 72.4985C59.2772 72.0425 58.9172 71.6825 58.4612 71.6825C58.0172 71.6825 57.6572 72.0425 57.6572 72.4985ZM65.8884 74.6825H64.6764L63.0204 79.1345L61.3764 74.6825H60.1044L62.4444 80.4545H63.5844L65.8884 74.6825ZM67.524 76.9745C67.572 76.2305 68.148 75.4985 69.096 75.4985C70.116 75.4985 70.656 76.1465 70.68 76.9745H67.524ZM70.848 78.4745C70.632 79.1225 70.164 79.6385 69.228 79.6385C68.256 79.6385 67.512 78.9185 67.488 77.8865H71.832C71.844 77.8145 71.856 77.6705 71.856 77.5265C71.856 75.7265 70.86 74.5025 69.084 74.5025C67.632 74.5025 66.324 75.7385 66.324 77.5505C66.324 79.5065 67.68 80.6345 69.228 80.6345C70.572 80.6345 71.496 79.8305 71.82 78.8105L70.848 78.4745ZM76.4999 74.6225C76.4399 74.6105 76.2839 74.5865 76.1279 74.5865C75.5399 74.5865 74.8199 74.8025 74.3999 75.6905V74.6825H73.2959V80.4545H74.4239V77.5625C74.4239 76.2905 75.0599 75.7865 76.0079 75.7865C76.1639 75.7865 76.3319 75.7985 76.4999 75.8225V74.6225ZM77.1622 78.9545C77.2582 79.6145 77.9302 80.6345 79.5142 80.6345C80.9422 80.6345 81.6262 79.6625 81.6262 78.8465C81.6262 77.9945 81.0742 77.3585 80.0302 77.1305L79.0942 76.9265C78.6502 76.8305 78.4342 76.5785 78.4342 76.2305C78.4342 75.8345 78.8182 75.4625 79.3942 75.4625C80.3062 75.4625 80.5462 76.1225 80.5942 76.4225L81.5902 76.0505C81.4702 75.5345 80.9782 74.5025 79.3942 74.5025C78.2662 74.5025 77.3422 75.3425 77.3422 76.3265C77.3422 77.1425 77.8822 77.7545 78.7822 77.9465L79.7662 78.1625C80.2462 78.2705 80.5102 78.5465 80.5102 78.9065C80.5102 79.3145 80.1622 79.6745 79.5262 79.6745C78.7102 79.6745 78.2542 79.1945 78.1822 78.5945L77.1622 78.9545ZM84.244 80.4545V74.6825H83.128V80.4545H84.244ZM82.876 72.4985C82.876 72.9425 83.236 73.3025 83.68 73.3025C84.136 73.3025 84.496 72.9425 84.496 72.4985C84.496 72.0425 84.136 71.6825 83.68 71.6825C83.236 71.6825 82.876 72.0425 82.876 72.4985ZM87.6751 72.8585H86.6431V73.7945C86.6431 74.2985 86.3791 74.6825 85.7551 74.6825H85.4431V75.7025H86.5471V78.8705C86.5471 79.9145 87.1711 80.5145 88.1551 80.5145C88.5391 80.5145 88.8271 80.4425 88.9231 80.4065V79.4465C88.8271 79.4705 88.6231 79.4945 88.4791 79.4945C87.8911 79.4945 87.6751 79.2305 87.6751 78.7025V75.7025H88.9231V74.6825H87.6751V72.8585ZM91.9273 82.8665L95.6833 74.6825H94.4713L92.7433 78.6665L90.9433 74.6825H89.6473L92.1313 79.8185L90.6913 82.8665H91.9273Z" fill="#F1FFF2"/>
</svg>
