<svg width="154" height="154" viewBox="0 0 154 154" fill="none" xmlns="http://www.w3.org/2000/svg">
<circle opacity="0.2" cx="76.7209" cy="76.7209" r="65.5407" stroke="#2196F3" stroke-width="16"/>
<path opacity="0.4" d="M66.032 141.616C75.6881 143.255 85.5889 142.71 95.0063 140.019C104.424 137.328 113.118 132.561 120.451 126.067C127.783 119.574 133.567 111.52 137.378 102.497C141.188 93.4746 142.928 83.7127 142.469 73.9291C142.01 64.1456 139.364 54.5893 134.726 45.9629C130.088 37.3364 123.575 29.8592 115.667 24.0808C107.759 18.3025 98.6562 14.37 89.0283 12.5725C79.4003 10.7751 69.492 11.1583 60.0316 13.694" stroke="#2196F3" stroke-width="16"/>
<path d="M47.681 71.456H57.665V76H61.441V71.456H64.929V68.064H61.441V55.264H56.513L47.681 67.296V71.456ZM57.665 68.064H51.137L57.665 59.136V68.064ZM70.6543 65.632C70.6543 63.008 71.1023 60.992 72.1263 59.712C72.8303 58.784 73.8223 58.176 75.3263 58.176C76.8303 58.176 77.7903 58.784 78.5263 59.712C79.5183 60.992 79.9663 63.008 79.9663 65.632C79.9663 68.256 79.5183 70.272 78.5263 71.552C77.7903 72.48 76.8303 73.088 75.3263 73.088C73.8223 73.088 72.8303 72.48 72.1263 71.552C71.1343 70.272 70.6543 68.256 70.6543 65.632ZM66.8463 65.632C66.8463 68.384 67.2943 70.976 68.7023 73.088C70.0463 75.104 72.2223 76.48 75.3263 76.48C78.4303 76.48 80.5743 75.104 81.9183 73.088C83.3263 70.976 83.7743 68.384 83.7743 65.632C83.7743 62.88 83.3263 60.288 81.9183 58.176C80.5743 56.16 78.4303 54.784 75.3263 54.784C72.2223 54.784 70.0463 56.16 68.7023 58.176C67.2943 60.288 66.8463 62.88 66.8463 65.632ZM89.1378 60.128C89.1378 58.752 90.1298 57.792 91.4098 57.792C92.6898 57.792 93.6498 58.752 93.6498 60.128C93.6498 61.504 92.6898 62.496 91.4098 62.496C90.1298 62.496 89.1378 61.504 89.1378 60.128ZM86.1618 60.128C86.1618 63.008 88.5618 65.248 91.3778 65.248C94.2258 65.248 96.6578 63.04 96.6578 60.128C96.6578 57.248 94.2258 54.976 91.4098 54.976C88.5618 54.976 86.1618 57.248 86.1618 60.128ZM102.514 71.168C102.514 69.792 103.506 68.832 104.786 68.832C106.066 68.832 107.026 69.792 107.026 71.168C107.026 72.544 106.066 73.536 104.786 73.536C103.506 73.536 102.514 72.544 102.514 71.168ZM99.5378 71.168C99.5378 74.048 101.938 76.288 104.754 76.288C107.602 76.288 110.034 74.08 110.034 71.168C110.034 68.288 107.602 66.016 104.786 66.016C101.938 66.016 99.5378 68.288 99.5378 71.168ZM92.4018 76L107.154 55.264H103.826L89.0418 76H92.4018Z" fill="#274B28"/>
<path d="M59.9381 99V90.492H58.7621V94.128H54.4181V90.492H53.2421V99H54.4181V95.22H58.7621V99H59.9381ZM65.7855 98.304C65.7855 98.544 65.8095 98.868 65.8335 99H66.9135C66.8895 98.796 66.8535 98.388 66.8535 97.932V93.228H65.7255V96.708C65.7255 97.584 65.2695 98.184 64.3575 98.184C63.4095 98.184 63.0495 97.488 63.0495 96.696V93.228H61.9215V96.864C61.9215 98.172 62.7375 99.18 64.0815 99.18C64.7535 99.18 65.4735 98.904 65.7855 98.304ZM69.8944 99V95.52C69.8944 94.656 70.4344 94.056 71.2384 94.056C72.1024 94.056 72.4624 94.632 72.4624 95.376V99H73.5904V95.508C73.5904 94.68 74.1304 94.056 74.9224 94.056C75.7744 94.056 76.1464 94.62 76.1464 95.376V99H77.2624V95.256C77.2624 93.744 76.2784 93.06 75.2704 93.06C74.5384 93.06 73.7944 93.324 73.3384 94.152C73.0264 93.408 72.3304 93.06 71.6104 93.06C70.9384 93.06 70.2184 93.36 69.8584 93.996V93.228H68.7784V99H69.8944ZM80.1834 99V93.228H79.0674V99H80.1834ZM78.8154 91.044C78.8154 91.488 79.1754 91.848 79.6194 91.848C80.0754 91.848 80.4354 91.488 80.4354 91.044C80.4354 90.588 80.0754 90.228 79.6194 90.228C79.1754 90.228 78.8154 90.588 78.8154 91.044ZM82.7746 96.096C82.7746 94.908 83.4466 94.068 84.4786 94.068C85.5106 94.068 86.1346 94.884 86.1346 96.072C86.1346 97.26 85.4986 98.16 84.4666 98.16C83.3866 98.16 82.7746 97.284 82.7746 96.096ZM86.1466 98.22C86.1466 98.568 86.1826 98.868 86.2066 99H87.2986C87.2866 98.904 87.2386 98.484 87.2386 97.932V90.312H86.1226V94.044C85.9306 93.576 85.3786 93.072 84.3586 93.072C82.7266 93.072 81.6226 94.464 81.6226 96.096C81.6226 97.812 82.6666 99.156 84.3586 99.156C85.2586 99.156 85.8706 98.676 86.1466 98.124V98.22ZM90.2733 99V93.228H89.1573V99H90.2733ZM88.9053 91.044C88.9053 91.488 89.2653 91.848 89.7093 91.848C90.1653 91.848 90.5253 91.488 90.5253 91.044C90.5253 90.588 90.1653 90.228 89.7093 90.228C89.2653 90.228 88.9053 90.588 88.9053 91.044ZM93.7044 91.404H92.6724V92.34C92.6724 92.844 92.4084 93.228 91.7844 93.228H91.4724V94.248H92.5764V97.416C92.5764 98.46 93.2004 99.06 94.1844 99.06C94.5684 99.06 94.8564 98.988 94.9524 98.952V97.992C94.8564 98.016 94.6524 98.04 94.5084 98.04C93.9204 98.04 93.7044 97.776 93.7044 97.248V94.248H94.9524V93.228H93.7044V91.404ZM97.9566 101.412L101.713 93.228H100.501L98.7726 97.212L96.9726 93.228H95.6766L98.1606 98.364L96.7206 101.412H97.9566Z" fill="#757575"/>
</svg>
